<?xml version="1.0" encoding="utf-8"?>
<!-- Generator: Adobe Illustrator 26.0.3, SVG Export Plug-In . SVG Version: 6.00 Build 0)  -->
<svg version="1.1" id="Layer_1" xmlns="http://www.w3.org/2000/svg" xmlns:xlink="http://www.w3.org/1999/xlink" x="0px" y="0px"
	 viewBox="0 0 32 32" style="enable-background:new 0 0 32 32;" xml:space="preserve">
<style type="text/css">
	.st0{fill:#FFFFFF;}
</style>
<g>
	<path class="st0" d="M23.8,25.5c0-0.4,0-0.8,0.1-1.1c0.1-0.3,0.2-0.6,0.4-0.9L26,21c0.3-0.5,0.5-0.9,0.5-1.4c0-0.6-0.2-1-0.5-1.4
		c-0.4-0.3-0.7-0.5-1.2-0.5c-0.5,0-1,0.2-1.3,0.5c-0.4,0.3-0.6,0.9-0.6,1.8h-2v-0.4c0-1.1,0.4-2.1,1.1-2.8c0.7-0.7,1.6-1.1,2.6-1.1
		c1,0,1.9,0.4,2.7,1.1c0.8,0.7,1.2,1.7,1.2,2.9c0,0.9-0.2,1.6-0.6,2.2l-1.8,2.6c-0.2,0.4-0.3,0.8-0.3,1.3v1.2h-2
		C23.8,26.9,23.8,25.5,23.8,25.5z M23.8,28.4h2v2.1h-2V28.4z"/>
</g>
</svg>
