<?xml version="1.0" encoding="utf-8"?>
<!-- Generator: Adobe Illustrator 26.5.0, SVG Export Plug-In . SVG Version: 6.00 Build 0)  -->
<svg version="1.1" id="Layer_1" xmlns="http://www.w3.org/2000/svg" xmlns:xlink="http://www.w3.org/1999/xlink" x="0px" y="0px"
	 viewBox="0 0 32 32" style="enable-background:new 0 0 32 32;" xml:space="preserve">
<style type="text/css">
	.st0{fill:#FFFFFF;}
</style>
<g>
	<path class="st0" d="M4.3,11.11c-0.19,0-0.35-0.14-0.37-0.33C3.47,6.8,7.04,3.42,7.19,3.28C7.35,3.14,7.58,3.15,7.72,3.3
		c0.14,0.15,0.13,0.39-0.02,0.53C7.67,3.86,4.26,7.1,4.67,10.69c0.02,0.21-0.12,0.39-0.33,0.42C4.33,11.1,4.31,11.11,4.3,11.11z"/>
</g>
<g>
	<path class="st0" d="M1.39,9.94c-0.2,0-0.37-0.16-0.37-0.36C0.87,5.43,5.41,1.14,5.6,0.96c0.15-0.14,0.39-0.13,0.53,0.02
		C6.27,1.12,6.26,1.36,6.11,1.5C6.07,1.55,1.63,5.75,1.77,9.55C1.77,9.76,1.61,9.93,1.4,9.94C1.4,9.94,1.4,9.94,1.39,9.94z"/>
</g>
<g>
	<path class="st0" d="M25.87,16.38c-0.15,0-0.29-0.09-0.35-0.23c-0.08-0.19,0.01-0.41,0.2-0.49c2.85-1.2,2.43-4.86,2.41-5.02
		c-0.03-0.21,0.12-0.39,0.33-0.42c0.2-0.02,0.39,0.12,0.42,0.33c0.01,0.04,0.51,4.38-2.87,5.8C25.97,16.37,25.92,16.38,25.87,16.38z
		"/>
</g>
<g>
	<path class="st0" d="M26.31,19.44c-0.16,0-0.3-0.1-0.35-0.25c-0.07-0.2,0.04-0.41,0.23-0.48c4.34-1.48,3.79-6.23,3.77-6.43
		c-0.03-0.21,0.12-0.39,0.32-0.42c0.2-0.03,0.39,0.12,0.42,0.32c0.01,0.06,0.66,5.56-4.27,7.24C26.39,19.44,26.35,19.44,26.31,19.44
		z"/>
</g>
<g>
	<g>
		<polygon class="st0" points="7.8,29.12 7.8,29.12 7.8,29.12 		"/>
	</g>
	<g>
		<path class="st0" d="M19.66,22.17c0.76-0.94,1.3-1.9,1.65-2.92c0.29-0.84,0.58-1.65,0.99-2.45c0.69-1.33,1.37-2.66,2.05-4
			c0.19-0.38,0.37-0.76,0.55-1.15l0.23-0.48l0.02-0.17c0-0.08,0.01-0.15,0-0.23c-0.07-0.64-0.31-1.12-0.85-1.23
			c-0.59-0.12-0.82,0.45-0.87,0.45l-0.15,0.32c-0.81,1.79-1.6,3.51-2.34,5.08c-0.06,0.14-0.2,0.21-0.34,0.21
			c-0.05,0-0.11-0.01-0.16-0.04c-0.19-0.09-0.27-0.31-0.18-0.5c0.75-1.56,1.85-3.98,2.66-5.76L23.1,8.9
			c0.02-0.05,0.06-0.09,0.1-0.13l0.38-0.87c0.11-0.24,0.21-0.48,0.31-0.73c0.21-0.55,0.28-1.25-0.85-1.45
			c-0.85-0.15-3.86,5.81-4.51,7.35c-0.06,0.14-0.2,0.23-0.35,0.23c-0.05,0-0.1-0.01-0.15-0.03c-0.19-0.08-0.28-0.3-0.2-0.49
			c0.57-1.36,2.72-5.45,3.92-7.39h0l0.76-1.64c0.12-0.24,0.23-0.48,0.33-0.73c0.31-0.82,0-1.56-0.82-1.93L21.65,1l-0.08,0
			c-0.07,0-0.14,0-0.21,0.01c-0.44,0.06-0.77,0.24-1.01,0.54c-1.56,3.48-3.37,7.12-4.44,9.1c-0.07,0.13-0.2,0.2-0.33,0.2
			c-0.06,0-0.12-0.01-0.18-0.04c-0.18-0.1-0.25-0.33-0.15-0.51c0.95-1.76,4.2-7.42,3.71-8.3c-0.28-0.51-0.69-0.64-1.15-0.62
			c-0.52,0.02-1,0.33-1.24,0.81c-0.47,0.92-0.94,1.83-1.4,2.75c-0.53,1.05-1.06,2.1-1.6,3.14c-0.41,0.79-0.85,1.57-1.29,2.35
			l-0.2,0.35c-0.09,0.16-0.21,0.3-0.33,0.45l-1.19,1.55l0.2-2.08c0.02-0.21,0.05-0.42,0.05-0.62c0-0.9-0.35-1.62-1.03-2.12
			c-0.42-0.31-0.83-0.41-1.26-0.3c-0.51,2.24-1.01,4.49-1.51,6.73c0.13,1.43,0.52,2.75,0.91,3.99l0.09,0.3
			c0.34,1.07,0.68,2.14,0.99,3.22c0.18,0.64,0.36,1.4,0.3,2.22c-0.03,0.46-0.11,0.94-0.22,1.47c-0.18,0.86-0.38,1.72-0.57,2.58
			l-0.26,1.18c-0.02,0.08-0.73,2.28-0.81,2.5c-0.09,0.25,9.22,0.07,9.22,0.07l1.58-7.85c0.04-0.16,0.12-0.33,0.22-0.46
			c0.21-0.27,0.43-0.53,0.65-0.79L19.66,22.17z"/>
	</g>
</g>
</svg>
