<?xml version="1.0" encoding="utf-8"?>
<!-- Generator: Adobe Illustrator 26.5.0, SVG Export Plug-In . SVG Version: 6.00 Build 0)  -->
<svg version="1.1" id="Layer_1" xmlns="http://www.w3.org/2000/svg" xmlns:xlink="http://www.w3.org/1999/xlink" x="0px" y="0px"
	 viewBox="0 0 32 32" style="enable-background:new 0 0 32 32;" xml:space="preserve">
<style type="text/css">
	.st0{fill:#FFFFFF;}
</style>
<g>
	<path class="st0" d="M6.32,8.87c-0.16-0.06-0.26-0.2-0.23-0.34c0.6-2.95,4.42-4.3,4.58-4.36c0.17-0.05,0.36,0.02,0.44,0.17
		s0.01,0.31-0.15,0.37c-0.03,0.01-3.69,1.31-4.23,3.97c-0.03,0.15-0.2,0.24-0.38,0.2C6.35,8.87,6.33,8.87,6.32,8.87z"/>
</g>
<g>
	<path class="st0" d="M3.81,7.68c-0.2-0.06-0.34-0.24-0.29-0.4c0.8-3.47,6.4-5.72,6.63-5.82c0.18-0.07,0.43,0,0.53,0.17
		c0.11,0.16,0.04,0.35-0.14,0.42c-0.05,0.03-5.52,2.24-6.25,5.41C4.24,7.64,4.04,7.74,3.81,7.68C3.83,7.68,3.83,7.68,3.81,7.68z"/>
</g>
<g>
	<g>
		<path class="st0" d="M5.55,28.27L5.55,28.27L5.55,28.27z"/>
	</g>
	<g>
		<path class="st0" d="M15.06,22.7c0.61-0.75,1.04-1.52,1.32-2.34c0.23-0.67,0.46-1.32,0.79-1.96c0.55-1.07,1.1-2.13,1.64-3.21
			c0.15-0.3,0.3-0.61,0.44-0.92l0.18-0.38l0.02-0.14c0-0.06,0.01-0.12,0-0.18c-0.06-0.51-0.25-0.9-0.68-0.99
			c-0.47-0.1-0.66,0.36-0.7,0.36l-0.12,0.26c-0.65,1.43-1.28,2.81-1.88,4.07c-0.05,0.11-0.16,0.17-0.27,0.17
			c-0.04,0-0.09-0.01-0.13-0.03c-0.15-0.07-0.22-0.25-0.14-0.4c0.6-1.25,1.48-3.19,2.13-4.62l0.14-0.32
			c0.02-0.04,0.05-0.07,0.08-0.1l0.3-0.7c0.09-0.19,0.17-0.38,0.25-0.59c0.17-0.44,0.22-1-0.68-1.16c-0.68-0.12-3.09,4.66-3.62,5.89
			c-0.05,0.11-0.16,0.18-0.28,0.18c-0.04,0-0.08-0.01-0.12-0.02c-0.15-0.06-0.22-0.24-0.16-0.39c0.46-1.09,2.18-4.37,3.14-5.92l0,0
			l0.61-1.31c0.1-0.19,0.18-0.38,0.26-0.59c0.25-0.66,0-1.25-0.66-1.55l-0.3-0.07h-0.06c-0.06,0-0.11,0-0.17,0.01
			c-0.35,0.05-0.62,0.19-0.81,0.43c-1.25,2.79-2.7,5.71-3.56,7.29c-0.06,0.1-0.16,0.16-0.26,0.16c-0.05,0-0.1-0.01-0.14-0.03
			c-0.14-0.08-0.2-0.26-0.12-0.41c0.76-1.41,3.37-5.95,2.97-6.65c-0.22-0.41-0.55-0.51-0.92-0.5c-0.42,0.02-0.8,0.26-0.99,0.65
			c-0.38,0.74-0.75,1.47-1.12,2.2c-0.42,0.84-0.85,1.68-1.28,2.52c-0.33,0.63-0.68,1.26-1.03,1.88l-0.16,0.28
			c-0.07,0.13-0.17,0.24-0.26,0.36l-0.95,1.24l0.16-1.67c0.02-0.17,0.04-0.34,0.04-0.5c0-0.72-0.28-1.3-0.83-1.7
			c-0.34-0.25-0.67-0.33-1.01-0.24c-0.41,1.8-0.81,3.6-1.21,5.4c0.1,1.15,0.42,2.2,0.73,3.2l0.07,0.24
			c0.27,0.86,0.55,1.72,0.79,2.58c0.14,0.51,0.29,1.12,0.24,1.78c-0.02,0.37-0.09,0.75-0.18,1.18c-0.14,0.69-0.3,1.38-0.46,2.07
			l-0.21,0.95c-0.02,0.06-0.59,1.83-0.65,2c-0.07,0.2,7.39,0.06,7.39,0.06l1.27-6.29c0.03-0.13,0.1-0.26,0.18-0.37
			c0.17-0.22,0.34-0.42,0.52-0.63L15.06,22.7z"/>
	</g>
</g>
<g>
	<path class="st0" d="M23.75,25.53c0-0.4,0.03-0.76,0.1-1.07c0.07-0.3,0.21-0.61,0.4-0.91l1.72-2.56c0.32-0.48,0.48-0.94,0.48-1.36
		c-0.01-0.58-0.19-1.03-0.55-1.36c-0.36-0.32-0.74-0.47-1.17-0.47c-0.52,0-0.95,0.17-1.28,0.5c-0.37,0.34-0.56,0.92-0.56,1.76h-2.04
		v-0.41c0.01-1.14,0.4-2.08,1.14-2.81c0.73-0.74,1.61-1.12,2.63-1.13c1.03,0.01,1.93,0.36,2.69,1.05c0.77,0.72,1.17,1.69,1.18,2.91
		c-0.01,0.87-0.22,1.6-0.62,2.18l-1.75,2.59c-0.23,0.36-0.34,0.8-0.33,1.31v1.18h-2.04C23.75,26.91,23.75,25.53,23.75,25.53z
		 M23.75,28.41h2.04v2.09h-2.04V28.41z"/>
</g>
</svg>
