<?xml version="1.0" encoding="utf-8"?>
<!-- Generator: Adobe Illustrator 26.5.0, SVG Export Plug-In . SVG Version: 6.00 Build 0)  -->
<svg version="1.1" id="Layer_1" xmlns="http://www.w3.org/2000/svg" xmlns:xlink="http://www.w3.org/1999/xlink" x="0px" y="0px"
	 viewBox="0 0 24 24" style="enable-background:new 0 0 24 24;" xml:space="preserve">
<style type="text/css">
	.st0{fill:#FFFFFF;}
</style>
<path class="st0" d="M12,2.2c3.2,0,4.3-0.5,5.6-0.5c3.3,0.1,4.1,2.2,4.2,5.4c0.1,1.3,0.1,1.6,0.1,4.8c0,3.2,0,3.6-0.1,4.8
	c-0.1,3.2-1.1,4.7-4.3,4.9c-1.3,0.1-2.2,0.1-5.5,0.1c-3.2,0-3.6,0-4.8-0.1c-3.3-0.1-4.8-1.7-4.9-4.9c-0.1-1.3-0.4-0.2-0.4-3.4
	c0-3.2-0.1-3.2,0-4.5c0.1-3.2,2-7.4,5.4-6.7C8.4,2.2,8.8,2.2,12,2.2z M12,0C8.7,0,8.3,0,7.1,0.1c-4.4,0.2-6.8,2.6-7,7
	C0,8.3,0,8.7,0,12s0,3.7,0.1,4.9c0.2,4.4,2.6,6.8,7,7C8.3,24,8.7,24,12,24s3.7,0,4.9-0.1c6.4-0.2,6.8-2.6,7-7C24,15.7,24,15.3,24,12
	s0-3.7-0.1-4.9c-0.2-4.4-2.6-6.8-7-7C15.7,0,15.3,0,12,0z M12,5.8C8.6,6,5.8,8.6,5.8,12s0.5,6.2,6.2,6.2c3.4,0,6.2-2.8,6.2-6.2
	C18.2,8.6,17,5.6,12,5.8z M12,16c-3.2,0-4-1.8-4-4c0-2.2,1.8-4,4-4s4,0,4,4C16,14.2,14.2,16,12,16z M18.4,4.2C17,3.9,17,4.8,17,5.6
	S17.6,7,18.4,7c1.4,0,1.4-0.6,1.4-1.4S19.2,4.3,18.4,4.2z"/>
</svg>
