<?xml version="1.0" encoding="utf-8"?>
<!-- Generator: Adobe Illustrator 26.5.0, SVG Export Plug-In . SVG Version: 6.00 Build 0)  -->
<svg version="1.1" id="Layer_1" xmlns="http://www.w3.org/2000/svg" xmlns:xlink="http://www.w3.org/1999/xlink" x="0px" y="0px"
	 viewBox="0 0 24 24" style="enable-background:new 0 0 24 24;" xml:space="preserve">
<style type="text/css">
	.st0{fill:#0000FF;}
</style>
<path class="st0" d="M7.8,8H6.3C5.4,8,5.5,8.3,5.5,8.7v1.9c0,0.7,0.6,1.4,1.4,1.4h0.9c1,0,1,2.1,1,2.5l-0.2,7.3
	c0,0.4,0.3,2.3,0.7,2.3h3.5c0.4,0,0.7-0.3,0.7-0.7V12.7c0-0.4,0.3-0.7,0.7-0.7h2.2c0.4,0,1-1.1,1-1.5l-0.1-1.7C17.3,8.4,17,8,16.6,8
	H15c-0.4,0-1.3-0.1-1.5-0.3l-0.6-1.2c0-1-0.6-1.8,1.7-1.5h2.2c0.4,0,0.7-0.4,0.7-0.7l0.2-2.8c0-0.4-0.6-1.5-1-1.5h-3.1
	C10,0,8.2,2.4,8.4,4.6v2.7C8.5,7.7,8.2,8,7.8,8z"/>
</svg>
