<?xml version="1.0" encoding="utf-8"?>
<!-- Generator: Adobe Illustrator 26.0.3, SVG Export Plug-In . SVG Version: 6.00 Build 0)  -->
<svg version="1.1" id="Layer_1" xmlns="http://www.w3.org/2000/svg" xmlns:xlink="http://www.w3.org/1999/xlink" x="0px" y="0px"
	 viewBox="0 0 885.4 270.9" style="enable-background:new 0 0 885.4 270.9;" xml:space="preserve">
<style type="text/css">
	.st0{fill:#5168C1;}
	.st1{fill:#FFFFFF;}
	.st2{fill:#131718;}
</style>
<g>
	<g>
		<path class="st0" d="M238.5,118.4c0-53.5-43.4-96.9-96.9-96.9s-96.9,43.4-96.9,96.9c0,47.9,34.7,87.6,80.3,95.5v11.4h-17.3v27.6
			H125v18h16h1h16v-18h17.3v-27.6h-17.3v-11.4C203.8,206,238.5,166.2,238.5,118.4z"/>
		<path d="M60.9,219.2c-3.8-4.3-7.3-8.8-10.6-13.4c8.3,6.6,17.3,6,17.3,6c-4.9-20.1-21.2-18.9-25.4-18.3c-3-5-5.8-10-8.4-15.1
			c7.3,7.7,16.2,8.4,16.2,8.4c-1.9-20.4-18.1-21.8-22.4-21.8c-2.8-6.5-5.3-12.9-7.4-19.2c7.6,12.4,20.3,13.6,20.3,13.6
			c-1.3-22.7-19.4-24.1-23.7-24.1C7.9,106.1,6.1,83.4,6.1,83l-4.6,0.3c0,0.4,1.8,23.8,11,54c-0.4,0.2-18.7,12.4-4.2,33.9
			c0,0,9.3-10.4,7.2-24.8c2.3,6.8,5,13.8,8,21c-2.9,3.5-12.6,17.1,3,32c0,0,4.9-7.5,3.6-18c2.6,5,5.4,10.1,8.4,15.1
			c-2.5,4-9.8,18.8,7.6,31.2c0,0,3.7-8.1,1-18.3c3.3,4.6,6.9,9.1,10.8,13.4c0.2,6.2,2.8,18,20.1,18.9
			C77.9,241.6,80.7,222.3,60.9,219.2z"/>
		<path class="st1" d="M276.9,156.8 M276.9,156.8c0-2.2-2.4-1.9-2.4-1.9h-9.2c-12.5-0.2-23.8-1.3-33.5-2.8l-7.6-1.3
			c-21.5-4.2-33.8-9.9-33.8-9.9c-15.4-7.6-15.7-12.6-15.7-13.4c0-0.2,0-0.3,0-0.3c14-13.3,27.6-30.4,27.6-30.4
			c11.3-14.6,10.6-18.5,9.1-19.2c-1.6-0.8-14.5,1.8-14.5,1.8L222,45.2c5.5-8.9-3.6-6.6-3.6-6.6l-14.5,3c0,0,14.4-17.4,21.2-24.8
			c15.4-16.8,2.3-14.3,2.3-14.3c-38.4,4.2-67.6,17.2-83.2,25.6c-1.9,1-9.4,4.5-15.7,10c-13.2,11.3-30.6,36.7-30.6,36.7
			c-3,5.1-5.3,8.5-5.3,8.5c-8.3,11.1-24.9,5.3-24.9,5.3c-2.7-0.7-5.3-1.6-7.5-2.4c0,0-7.1-2.9-7.3-3c-23.1-11-37.3,5.6-37.3,5.6
			l-7.1,8.9l-2.3,1.9l-2.3,1.7c-1.3,1.2-1.7,2-1.8,2.5c0.1,0.6,0.6,0.7,0.6,0.7l3.8,0.3c0,0.1,2.3,0.2,2.3,0.1
			c11.1,0.4,13.5,3.4,13.5,3.4c4.4,4.1,19.8,18.9,19.8,18.9c1.1,1.3,2.2,2.5,3.4,3.7c0,0.1,0,0.2,0,0.2l9.3,9.2c0,0,0.1,0,0.1,0.1
			c0-0.1-0.1-0.2-0.1-0.3c33.9,31.1,68.3,38.5,68.3,38.5c11,3.1,52.3,6.4,52.3,6.4l4.4,0.7c2.6,0.4,6.4,2.5,10.8,5.5
			c-0.1,0-0.1,0.1-0.2,0.1c0.1,0,0.1,0.1,0.2,0.1l6.3,4.5c0,0,0.1-0.1,0.2-0.1c15.1,11.4,33,28.4,33,28.4c4,3.9,4.4,0,4.4,0
			l5.5-24.8l14.5-4.4c3.4-1.6,2.8-5.9,2.8-5.9l-1.6-12.2L276.9,156.8z M208.2,52"/>
		<path class="st2" d="M233.2,228.3c-2.1,0-3.9-1.8-4.5-2.4c-0.1-0.1-17.4-16.5-32.1-27.7c-0.3-0.1-0.5-0.2-0.7-0.3l-6.4-4.6
			c-0.3-0.2-0.5-0.4-0.7-0.6c-5.1-3.3-7.8-4.3-9.1-4.6l-4.3-0.7c-2.7-0.2-41.5-3.4-52.6-6.5c-2.2-0.5-35.3-8.1-68.5-38.3
			c-0.3-0.1-0.5-0.3-0.7-0.4c0,0-0.1-0.1-0.1-0.1l-9.3-9.2c-0.2-0.2-0.4-0.5-0.5-0.8c-1-1.1-2-2.1-2.9-3.2
			c-1.1-1.1-15.5-14.8-19.7-18.8c-0.1-0.1-0.1-0.1-0.2-0.2c-0.4-0.3-3.1-2.2-11.6-2.6c-1,0.1-2.1,0.1-3-0.2l-3.4-0.3
			c-0.1,0-0.2,0-0.3-0.1c-1.1-0.3-2.2-1.2-2.4-2.7c0-0.2,0-0.3,0-0.5c0.1-1.3,0.9-2.5,2.5-4c0.1-0.1,0.1-0.1,0.2-0.2L5,97.7l2.1-1.6
			l7-8.7c0.2-0.2,15.7-18,40.1-6.3c0.3,0.1,4.6,1.9,7.2,3c2.5,0.9,5,1.7,7.2,2.3c0.1,0,0.1,0,0.2,0.1c0.1,0.1,15,5,22.2-4.4
			c0.3-0.4,2.4-3.7,5.2-8.4c0,0,0.1-0.1,0.1-0.1c0.7-1,17.7-25.8,31-37.1c5.7-5.1,12.4-8.4,15.2-9.9c0.4-0.2,0.7-0.3,0.9-0.5
			c14.4-7.8,44.4-21.5,83.9-25.8c0.9-0.2,5.5-0.8,7.2,2.4c1.8,3.3-0.5,8.1-7.5,15.8c-4.4,4.8-12.1,13.9-16.9,19.6l7.9-1.6
			c0.8-0.2,5.3-1.1,7.3,1.6c2.1,2.9-0.4,7.1-1.3,8.5c0,0.1-0.1,0.1-0.1,0.2L202.2,76c8.4-1.4,9.7-0.8,10.2-0.5
			c1,0.5,1.8,1.4,2.1,2.6c0.5,2.2,0,6.8-10.3,20.1c-0.2,0.2-13.3,16.7-27,29.8c0.5,1.2,2.8,5.1,14.3,10.7c0.1,0,12.2,5.7,33.2,9.7
			l7.6,1.3c10.7,1.7,21.9,2.6,33.1,2.8h9c0.6-0.1,2.2-0.1,3.5,1c0.6,0.5,1.4,1.5,1.4,3.2c0,0.7-0.2,1.3-0.7,1.7l-20.2,19.4l1.4,11
			c0.3,2.2-0.2,6.5-4.1,8.3c-0.1,0-0.2,0.1-0.3,0.1l-13.2,4l-5.2,23.3c-0.2,1.3-0.9,2.9-2.6,3.5C234,228.3,233.6,228.3,233.2,228.3z
			 M197.9,193.6c0.3,0.1,0.6,0.2,0.8,0.4c15.1,11.4,33,28.4,33.2,28.6c0.2,0.2,0.5,0.4,0.6,0.6l5.4-24.2c0.2-0.8,0.8-1.5,1.6-1.7
			l14.3-4.3c1.6-0.9,1.4-3.4,1.4-3.5l-1.6-12.2c-0.1-0.7,0.2-1.5,0.7-2l18.8-18.1h-7.8c-11.5-0.2-22.9-1.1-33.8-2.8l-7.7-1.3
			c-21.6-4.2-33.8-9.9-34.4-10.1c-14.9-7.4-17.1-12.8-17-15.5c0-0.4,0-0.6,0.1-0.8c0.1-0.5,0.3-0.9,0.7-1.2
			c13.7-13,27.2-30,27.3-30.1c7.9-10.1,9.2-14.2,9.4-15.6c-2.2,0.1-7.9,1-12.6,1.9c-0.9,0.2-1.9-0.2-2.4-1c-0.5-0.8-0.5-1.9,0.1-2.6
			l25-34.1c1.2-1.9,1.3-2.8,1.4-3.2c-0.5-0.1-1.6-0.1-2.4,0.1l-14.6,3c-1,0.2-2-0.2-2.5-1.1c-0.5-0.8-0.4-1.9,0.2-2.7
			c0.1-0.2,14.5-17.5,21.3-24.9c7.4-8.1,6.9-10.4,6.9-10.4c-0.2-0.1-1.5-0.2-2.4-0.1c-0.1,0-0.1,0-0.2,0
			C189,9,159.5,22.5,145.5,30.1c-0.3,0.1-0.6,0.3-1,0.5c-2.7,1.4-9,4.5-14.3,9.2C117.7,50.6,101,74.6,100.1,76
			c-3,5.1-5.2,8.4-5.3,8.6c0,0,0,0.1-0.1,0.1c-9,11.9-25.8,6.7-27.4,6.1c-2.4-0.6-4.9-1.4-7.7-2.4c-7.3-3-7.4-3.1-7.5-3.1
			c-21-10.1-33.9,4.5-34.5,5.1l-7.1,8.8c-0.1,0.1-0.2,0.3-0.4,0.4l-2.3,1.9l-1.4,1.1l0.6,0.1c0.1,0,0.2,0,0.4,0.1
			c0.3,0,1.1,0.1,1.5,0.1c0.1,0,0.3,0,0.4,0c10.7,0.4,14.2,3.2,15.1,4.1c4.5,4.2,19.6,18.7,19.8,18.8c0,0,0.1,0.1,0.1,0.1
			c1.1,1.2,2.2,2.5,3.3,3.6c0.2,0.2,0.3,0.4,0.4,0.6l8.2,8.1c0.2,0.1,0.4,0.2,0.6,0.4c32.9,30.2,66.9,37.8,67.2,37.9
			c0,0,0.1,0,0.1,0c10.6,3,51.4,6.3,51.8,6.4c0.1,0,0.1,0,0.2,0l4.4,0.7c2.8,0.5,6.6,2.4,11.7,5.8c0.3,0.2,0.5,0.4,0.7,0.7
			L197.9,193.6z M8,102.9c0.6,0.4,0.9,1,1,1.7C9,103.8,8.6,103.2,8,102.9C8,102.9,8,102.9,8,102.9z M4.6,104.2L4.6,104.2L4.6,104.2z
			 M7.5,102.6c0.2,0.1,0.4,0.2,0.5,0.3c0,0,0,0,0,0C7.9,102.8,7.7,102.7,7.5,102.6z"/>
		<circle cx="32.9" cy="92.5" r="4.3"/>
	</g>
	<g>
		<g>
			<path d="M300.8,164v-22.8h4V164H300.8z"/>
			<path d="M324.5,141.2h4V164h-4.1l-11.7-16.5h-0.1V164h-4v-22.8h4.2l11.6,16.6h0.1V141.2z"/>
			<path d="M329.8,141.2h16.7v3.5h-6.4V164h-4v-19.4h-6.3V141.2z"/>
			<path d="M348,164v-22.8h14.7v3.3H352v5.9h9.2v3.3H352v6.9h10.9v3.3H348z"/>
			<path d="M365.5,164v-22.8h10.1c4,0,6.8,1.7,6.8,6.1c0,3.4-1.9,4.8-4.8,5.3v0.1c3.1,0.1,4.4,1.8,4.4,4.7v3.5
				c0,1.3,0.4,2.2,1.3,3.1h-4.9c-0.7-1-0.6-2.2-0.6-3v-2.9c0-3.3-0.3-3.6-4-3.6h-4.3v9.5H365.5z M369.6,151.1h4.4
				c2.8,0,4.3-1.2,4.3-3.1c0-2.1-1.5-3.2-3.6-3.2h-5.1V151.1z"/>
			<path d="M401.3,141.2h4V164h-4.1l-11.7-16.5h-0.1V164h-4v-22.8h4.2l11.6,16.6h0.1V141.2z"/>
			<path d="M415.2,141.2h4.1l8.8,22.8h-4.5l-1.9-5.2h-9.2l-2,5.2h-4.5L415.2,141.2z M413.8,155.5h6.7l-3.2-9.3h-0.1L413.8,155.5z"/>
			<path d="M426.6,141.2h16.7v3.5h-6.4V164h-4v-19.4h-6.3V141.2z"/>
			<path d="M444.9,164v-22.8h4V164H444.9z"/>
			<path d="M463.6,164.7c-6.7,0-11.9-5.1-11.9-12.1c0-7,5.2-12.1,11.9-12.1c6.7,0,11.9,5.1,11.9,12.1
				C475.5,159.6,470.3,164.7,463.6,164.7z M463.6,143.9c-4.2,0-7.6,3.3-7.6,8.7s3.4,8.7,7.6,8.7c4.2,0,7.6-3.3,7.6-8.7
				S467.8,143.9,463.6,143.9z"/>
			<path d="M493.9,141.2h4V164h-4.1l-11.7-16.5H482V164h-4v-22.8h4.2l11.6,16.6h0.1V141.2z"/>
			<path d="M501.6,164v-22.8h14.7v3.3h-10.7v5.9h9.2v3.3h-9.2v6.9h10.9v3.3H501.6z"/>
			<path d="M523.3,160.7h10.8v3.3h-14.8v-22.8h4V160.7z"/>
			<path d="M540.3,160.7h10.8v3.3h-14.8v-22.8h4V160.7z"/>
			<path d="M559.4,141.2h4.1l8.8,22.8h-4.5l-1.9-5.2h-9.2l-2,5.2h-4.5L559.4,141.2z M558,155.5h6.7l-3.2-9.3h-0.1L558,155.5z"/>
			<path d="M585.2,141.2v9.9l9.7-9.9h5.3l-8.3,8.2l8.8,14.6H596l-6.9-11.9l-3.9,3.9v8h-4v-22.8H585.2z"/>
			<path d="M607.8,164l-8.9-22.8h4.4l6.7,17.3l6.4-17.3h4.4l-8.6,22.8H607.8z"/>
			<path d="M621.8,164v-22.8h4V164H621.8z"/>
			<path d="M645.6,141.2h4V164h-4.1l-11.7-16.5h-0.1V164h-4v-22.8h4.2l11.6,16.6h0.1V141.2z"/>
			<path d="M669.1,141.2h4V164H669l-11.7-16.5h-0.1V164h-4v-22.8h4.2l11.6,16.6h0.1V141.2z"/>
			<path d="M687.5,164.7c-6.7,0-11.9-5.1-11.9-12.1c0-7,5.2-12.1,11.9-12.1c6.7,0,11.9,5.1,11.9,12.1
				C699.4,159.6,694.2,164.7,687.5,164.7z M687.5,143.9c-4.2,0-7.6,3.3-7.6,8.7s3.4,8.7,7.6,8.7c4.2,0,7.6-3.3,7.6-8.7
				S691.7,143.9,687.5,143.9z"/>
			<path d="M702,141.2h14.7v3.3H706v5.9h9.2v3.3H706V164h-4V141.2z"/>
			<path d="M729.1,164.7c-6.7,0-11.9-5.1-11.9-12.1c0-7,5.2-12.1,11.9-12.1c6.7,0,11.9,5.1,11.9,12.1
				C741.1,159.6,735.9,164.7,729.1,164.7z M729.1,143.9c-4.2,0-7.6,3.3-7.6,8.7s3.4,8.7,7.6,8.7c4.2,0,7.6-3.3,7.6-8.7
				S733.3,143.9,729.1,143.9z M724.6,139.2v-3.5h3.6v3.5H724.6z M730.2,139.2v-3.5h3.6v3.5H730.2z"/>
			<path d="M743.6,164v-22.8h10.1c4,0,6.8,1.7,6.8,6.1c0,3.4-1.9,4.8-4.8,5.3v0.1c3.1,0.1,4.4,1.8,4.4,4.7v3.5
				c0,1.3,0.4,2.2,1.3,3.1h-4.9c-0.7-1-0.6-2.2-0.6-3v-2.9c0-3.3-0.3-3.6-4-3.6h-4.3v9.5H743.6z M747.7,151.1h4.4
				c2.8,0,4.3-1.2,4.3-3.1c0-2.1-1.5-3.2-3.6-3.2h-5.1V151.1z"/>
			<path d="M763.6,141.2h10c4.2,0,6.9,1.4,6.9,5.3c0,4.3-2.8,5-4,5.2v0.1c3.3,0.3,5.4,2.4,5.4,6.1c0,3.6-2.8,6.2-6.8,6.2h-11.5
				V141.2z M767.6,150.3h5c2.6,0,3.7-1.1,3.8-2.9c0-2-0.9-2.9-3.5-2.9h-5.3V150.3z M773,160.7c3.3,0,4.4-1.3,4.4-3.5
				c0-2.3-1.4-3.6-4-3.6h-5.8v7.1H773z"/>
			<path d="M787.9,141.2v15.3c0,3.1,2.6,4.8,5.5,4.8c2.9,0,5.5-1.7,5.5-4.8v-15.3h4v15.5c0,5.6-4.2,8.1-9.6,8.1
				c-5.3,0-9.6-2.5-9.6-8.1v-15.5H787.9z"/>
			<path d="M822.3,141.2h4V164h-4.1l-11.7-16.5h-0.1V164h-4v-22.8h4.2l11.6,16.6h0.1V141.2z"/>
			<path d="M830,141.2h10.2c5.6,0,10.5,3.5,10.5,11.4s-4.9,11.4-10.5,11.4H830V141.2z M834.1,160.7h4.2c5.2,0,8.2-2.8,8.2-8.1
				c0-5.3-3-8.1-8.2-8.1h-4.2V160.7z"/>
			<path d="M853.4,164v-22.8h14.7v3.3h-10.7v5.9h9.2v3.3h-9.2v6.9h10.9v3.3H853.4z"/>
			<path d="M868.7,141.2h16.7v3.5H879V164h-4v-19.4h-6.3V141.2z"/>
			<path d="M300.6,179.6h14.7v3.3h-10.7v5.9h9.2v3.3h-9.2v10.3h-4V179.6z"/>
			<path d="M328.5,203.1c-6.7,0-11.9-5.1-11.9-12.1c0-7,5.2-12.1,11.9-12.1c6.7,0,11.9,5.1,11.9,12.1
				C340.5,198,335.2,203.1,328.5,203.1z M328.5,182.3c-4.2,0-7.6,3.3-7.6,8.7s3.4,8.7,7.6,8.7c4.2,0,7.6-3.3,7.6-8.7
				S332.7,182.3,328.5,182.3z M324,177.6v-3.5h3.6v3.5H324z M329.6,177.6v-3.5h3.6v3.5H329.6z"/>
			<path d="M343.8,202.4v-22.8h10.1c4,0,6.8,1.7,6.8,6.1c0,3.4-1.9,4.8-4.8,5.3v0.1c3.1,0.1,4.4,1.8,4.4,4.7v3.5
				c0,1.3,0.4,2.2,1.3,3.1h-4.9c-0.7-1-0.6-2.2-0.6-3v-2.9c0-3.3-0.3-3.6-4-3.6h-4.3v9.5H343.8z M347.9,189.5h4.4
				c2.8,0,4.3-1.2,4.3-3.1c0-2.1-1.5-3.2-3.6-3.2h-5.1V189.5z"/>
			<path d="M373.5,179.6h14.7v3.3h-10.7v5.9h9.2v3.3h-9.2v10.3h-4V179.6z"/>
			<path d="M390.6,202.4v-22.8h10.1c4,0,6.8,1.7,6.8,6.1c0,3.4-1.9,4.8-4.8,5.3v0.1c3.1,0.1,4.4,1.8,4.4,4.7v3.5
				c0,1.3,0.4,2.2,1.3,3.1h-4.9c-0.7-1-0.6-2.2-0.6-3v-2.9c0-3.3-0.3-3.6-4-3.6h-4.3v9.5H390.6z M394.7,189.5h4.4
				c2.8,0,4.3-1.2,4.3-3.1c0-2.1-1.5-3.2-3.6-3.2h-5.1V189.5z"/>
			<path d="M411.4,202.4v-22.8h14.7v3.3h-10.7v5.9h9.2v3.3h-9.2v6.9h10.9v3.3H411.4z"/>
			<path d="M429.9,179.6h10.2c5.6,0,10.5,3.5,10.5,11.4s-4.9,11.4-10.5,11.4h-10.2V179.6z M433.9,199.1h4.2c5.2,0,8.2-2.8,8.2-8.1
				c0-5.3-3-8.1-8.2-8.1h-4.2V199.1z"/>
			<path d="M476,195.4c0.3-0.6,0.5-1.8,0.6-2.4h3.3c-0.4,1.8-0.8,3.6-1.8,5l3.3,4.4h-4.8l-1.1-1.6c-1.6,1.6-3.9,2.2-6.1,2.3
				c-3.8-0.1-7-2.6-7-6.7c0-3.1,2.4-5.3,5.1-6.6c-1.3-1.4-2-2.9-2-4.8c0-3.6,2.8-4.5,5.3-4.6c3.2-0.1,5.2,1.6,5.2,4.4
				c0,2.5-1.5,4.4-3.6,5.5L476,195.4z M469.3,192.3c-1.1,0.8-2.6,2.2-2.6,3.8c0,2.2,1.4,3.6,3.6,3.6c1.4,0,2.5-0.5,3.6-1.3
				L469.3,192.3z M470.5,188c1.3-0.8,2.1-1.8,2.1-3c0-1.1-0.8-1.6-2-1.6c-0.9,0-1.6,0.7-1.6,1.6C469.1,186.1,469.9,187.1,470.5,188z
				"/>
			<path d="M493.2,179.6h14.7v3.3h-10.7v5.9h9.2v3.3h-9.2v10.3h-4V179.6z"/>
			<path d="M510.4,202.4v-22.8h10.1c4,0,6.8,1.7,6.8,6.1c0,3.4-1.9,4.8-4.8,5.3v0.1c3.1,0.1,4.4,1.8,4.4,4.7v3.5
				c0,1.3,0.4,2.2,1.3,3.1h-4.9c-0.7-1-0.6-2.2-0.6-3v-2.9c0-3.3-0.3-3.6-4-3.6h-4.3v9.5H510.4z M514.4,189.5h4.4
				c2.8,0,4.3-1.2,4.3-3.1c0-2.1-1.5-3.2-3.6-3.2h-5.1V189.5z"/>
			<path d="M531.3,202.4v-22.8h4v22.8H531.3z"/>
			<path d="M540,179.6h4v9.2h10.5v-9.2h4v22.8h-4v-10.3h-10.5v10.3h-4V179.6z"/>
			<path d="M563.1,202.4v-22.8h14.7v3.3h-10.7v5.9h9.2v3.3h-9.2v6.9H578v3.3H563.1z"/>
			<path d="M579.2,179.6h16.7v3.5h-6.4v19.4h-4V183h-6.3V179.6z"/>
		</g>
		<g>
			<path d="M301,56.2h15.3v53.6H301V56.2z"/>
			<path d="M340.7,109.7h-15.3V56.2h15.3v20.7l20.4-20.7h19.4l-20.3,20l20.2,33.6H363L349.2,86l-8.5,8.2V109.7z"/>
			<path d="M384.2,56.2h41.5v11h-26v9.3h21.2v11h-21.3v22.4h-15.3V56.2z"/>
			<path d="M431.4,56.2h41.5v11h-26v9.3H468v11h-21.3v22.4h-15.3V56.2z"/>
		</g>
	</g>
</g>
</svg>
