<?xml version="1.0" encoding="utf-8"?>
<!-- Generator: Adobe Illustrator 25.4.1, SVG Export Plug-In . SVG Version: 6.00 Build 0)  -->
<svg version="1.1" id="Layer_1" xmlns="http://www.w3.org/2000/svg" xmlns:xlink="http://www.w3.org/1999/xlink" x="0px" y="0px"
	 viewBox="0 0 1505.1 1012.6" style="enable-background:new 0 0 1505.1 1012.6;" xml:space="preserve">
<style type="text/css">
	.st0{fill:#E7FF00;}
</style>
<path class="st0" d="M1505.1,324.1l-207.8-120.5l-1.2-0.7l-163.5,0.8v-95.2L944.7,0L4.3,340.7L1,341.9L0,679.4l187.8,108.4
	L378,719.2l-0.5,178.2L574.3,1011l2.9,1.7L1045.6,666l459.4-2.9L1505.1,324.1L1505.1,324.1z M577.3,669.5l-1.4-0.8h2.4L577.3,669.5z
	 M582.8,678.1l12.6-9.3l87.7,0.1l-100.5,73.3L582.8,678.1z M693.6,658.7l-84.5-0.1l84.8-62.8L693.6,658.7L693.6,658.7z M592.1,658.6
	h-34.5L522,638.9V494.7l172.8-62.6L694,583.2L592.1,658.6L592.1,658.6z M511.9,660l-123.7,44.7l0.4-128.2l123.3,68.4V660z
	 M184.2,774L17.1,677.6L184.2,617V774z M10.2,669.3l0.9-315l173.1,99.9v152.1L10.2,669.3z M950.7,15.2l164.8,95.1l-164.8,59.4V15.2z
	 M940.6,173.4l-92.1,33.2v159.1l-143.3,51.9l0.5-91.1L517,327.7l-327.2,118L18,346.5L940.6,12.3L940.6,173.4L940.6,173.4z
	 M1122.4,433.4l-72.6-41.9l0.2-56.5l72.5-0.5L1122.4,433.4L1122.4,433.4z M1115.5,441.1l-65.9,23.8l0.2-61.7L1115.5,441.1
	L1115.5,441.1z M1039.6,385.6l-34.6-20l34.7-25.7L1039.6,385.6z M1044.8,324.8h-1.7l-47.7,35.3l-44.8-25.9V214.7l171.7-0.9v110.4
	L1044.8,324.8z M940.6,332.3l-82,29.7V215.2l81.9-0.4L940.6,332.3L940.6,332.3z M883,204.9l57.5-20.8v20.5L883,204.9z M522.1,337.8
	l163.1-1L522.1,458.3V337.8z M695.4,341.8l-0.5,79.5L522,483.9V471L695.4,341.8L695.4,341.8z M194.3,454.8L511.9,340v125.8
	L455.2,508l-260.9,94.5L194.3,454.8L194.3,454.8z M511.9,478.5v9l-23.6,8.5L511.9,478.5z M511.9,498.4v134.9l-119-66l67.2-50.1
	L511.9,498.4L511.9,498.4z M522.1,650.5l14.6,8.1h-14.6V650.5z M705.1,428.4l143.4-51.9v92.4L704.2,575.6L705.1,428.4L705.1,428.4z
	 M858.6,372.8l85.1-30.8l42.8,24.7l-128,94.7v-88.6L858.6,372.8z M996.2,372.2l43.4,25.1l-0.2,71.2l-180.8,65.2V474L996.2,372.2
	L996.2,372.2z M1039.4,479.3l-0.2,55.6L883,535.7L1039.4,479.3L1039.4,479.3z M1049.5,475.7l83-29.9V334.4l156.3-1v200.3l-239.5,1.2
	L1049.5,475.7L1049.5,475.7z M1293.3,543.8l188,109.2l-432.3,2.8l0.3-110.8L1293.3,543.8L1293.3,543.8z M1299,535.4v-202l195.9-1.2
	v317.1L1299,535.4L1299,535.4z M1299,216.3L1481.3,322l-182.3,1.2L1299,216.3L1299,216.3z M1288.9,213v110.2l-156.3,1V213.8
	L1288.9,213L1288.9,213z M950.7,204.6v-24.1l171.7-61.9v85.1L950.7,204.6L950.7,204.6z M194.3,774.7V613.4L427,529.1l-48.6,36.2
	L378,708.4L194.3,774.7z M517.9,668.7H555l17.7,9.8l-0.2,71.1L387.7,884.4l0.5-169L517.9,668.7L517.9,668.7z M571.8,997.8L391.9,894
	l180.5-131.7L571.8,997.8L571.8,997.8z M581.9,996.5l0.7-241.7l121.1-88.4l0.4-78.1l144.3-106.8v64.6l190.7-1l-0.3,113.3
	L581.9,996.5L581.9,996.5z"/>
</svg>
