<?xml version="1.0" encoding="utf-8"?>
<!-- Generator: Adobe Illustrator 27.2.0, SVG Export Plug-In . SVG Version: 6.00 Build 0)  -->
<svg version="1.1" id="Layer_1" xmlns="http://www.w3.org/2000/svg" xmlns:xlink="http://www.w3.org/1999/xlink" x="0px" y="0px"
	 viewBox="0 0 428.8 428.8" style="enable-background:new 0 0 428.8 428.8;" xml:space="preserve">
<style type="text/css">
	.st0{fill:#0000FF;}
	.st1{fill:#FFFFFF;}
</style>
<path class="st0" d="M428.8,428.8H0V0h428.8V428.8z"/>
<g>
	<g>
		<path class="st1" d="M208.6,201.2c0,1.1-0.8,1.9-1.9,1.9h-24.2c-1.1,0-1.9-0.8-1.9-1.9v-56l-43,56c-0.9,1.3-1.7,1.7-3.2,1.7h-27.5
			c-1.1,0-1.7-1.3-0.8-2.5l39.2-49L102.4,76c-0.8-1.3-0.2-2.2,1.1-2.2h28c1.6,0,2.2,0.3,2.8,1.7l29.3,54.4l16.9-21.2v-33
			c0-1.1,0.8-1.9,1.9-1.9h24.2c1.1,0,1.9,0.8,1.9,1.9L208.6,201.2L208.6,201.2z"/>
		<path class="st1" d="M298.2,203.2c-1.7,0-2.2-0.6-2.8-1.9L273.1,154h-17.4c-0.8,0-1.1,0.3-1.1,1.1v46.2c0,1.1-0.8,1.9-1.9,1.9
			h-24.2c-1.1,0-1.9-0.8-1.9-1.9V75.8c0-1.1,0.8-1.9,1.9-1.9h51.5c26.4,0,44,16.6,44,40.2c0,16.6-8.7,29.6-23.1,35.9l25.5,50.9
			c0.6,1.1,0,2.2-1.3,2.2L298.2,203.2L298.2,203.2z M296,114c0-9.7-6.8-16-17.4-16h-22.8c-0.8,0-1.1,0.3-1.1,1.1V129
			c0,0.8,0.3,1.1,1.1,1.1h22.8C289.2,130.2,296,124,296,114z"/>
		<path class="st1" d="M102.4,305.4v-79.9c0-1.1,0.8-1.9,1.9-1.9h24.2c1.1,0,1.9,0.8,1.9,1.9v80.6c0,15.4,8.5,24.2,21.7,24.2
			c13,0,21.5-8.7,21.5-24.2v-80.6c0-1.1,0.8-1.9,1.9-1.9h24.2c1.1,0,1.9,0.8,1.9,1.9v79.9c0,32.1-20.6,49.6-49.5,49.6
			C122.9,355,102.4,337.5,102.4,305.4z"/>
		<path class="st1" d="M298.9,355c-1.7,0-2.5-0.6-3.2-1.9l-23.1-39.5h-0.5L248.9,353c-0.8,1.3-1.6,1.9-3.2,1.9h-26.2
			c-1.3,0-1.9-1.1-1.1-2.2l38.6-64.5L221,227.9c-0.6-1.1-0.2-2.2,1.1-2.2h26.4c1.6,0,2.2,0.6,3,1.9l20.6,35h0.6l20.6-35
			c0.8-1.3,1.6-1.9,3-1.9h26.4c1.3,0,1.7,1.1,1.1,2.2l-36.2,60.3l38.8,64.5c0.6,1.1,0.2,2.2-1.1,2.2L298.9,355L298.9,355L298.9,355z
			"/>
	</g>
</g>
</svg>
