<svg version="1.1" id="Layer_1" xmlns="http://www.w3.org/2000/svg" x="0" y="0" viewBox="0 0 444.6 472" xml:space="preserve"><style type="text/css">.st0{fill:#cf1f48}.st1{fill:#cf2047}</style><path class="st0" d="M253.4 73.5c2.8 4.4-.8 7.3-1.7 10.6-1.2-1.3-.7-4.9 1.7-10.6zm.5-.9c.3-2.5.6-5 .9-7.6 1 .1 1.6.2 2.8.4-1 2.7-1.9 5.1-2.8 7.5-.4-.1-.7-.2-.9-.3z"/><path class="st0" d="M377 270.3c-5.1-2.2-10.3-4-15.2-6.4-3.6-1.7-7.2-3.8-10.3-6.3-4.8-3.9-5.3-8.8-1.5-13.6 1.9-2.5 4.1-4.9 6.7-6.6 3.9-2.6 4.6-6 3.3-10-1.6-5-3.6-9.8-5.4-14.7-2-5.6-4.3-11-5.7-16.8-1.4-5.7-.3-10.4 6.1-12.6.3-.1.6-.3.9-.5 3.4-2 3.9-4.5 1.1-7.3-2.1-2.1-4.6-3.9-7.1-5.4-4.6-2.8-9.5-5.3-14.2-8.1-1.9-1.2-4.1-2.4-5.4-4.2-10.3-13.5-20.4-27.1-30.6-40.6-1.3-1.7-2.6-3.3-4.1-4.7-3.4-3.2-7.5-4.6-12.1-3.8-3.8.7-7.6 1.7-11.4 2.4-9 1.7-16.5-5.5-15-14.5.3-2.2 1-4.4 1.9-6.4 2.5-5.7 5.4-11.2 7.8-16.9 2.2-5.4 4.2-10.9 5.9-16.5.9-3.2.7-6.6-.7-10.2-.5 1.2-.8 1.9-1.1 2.7-2.7 7.7-5.1 15.5-8 23.1-2.6 6.7-5.7 13.1-8.7 19.6-1.1 2.3-2.8 4.3-5.5 5.3.5-2.2 1.2-4.2 1.9-6.3.8-2.1 1.7-4.2.7-7-.8 1.3-1.4 2.3-2 3.3-1.5 2.9-2.8 5.9-4.3 8.8-1.1 2.2-2.3 4.3-3.7 6.3-3 4.2-5.9 4-8.4-.5-.8-1.4-1.4-2.8-2.3-4.5-2.6 2.8-4.9 5.4-7.4 8-1.8 1.9-2.7 1.8-3.8-.6-1.7-3.8-3.4-7.6-4.9-11.5-1.1-2.6-2.8-4-5.7-4.1-.8 0-1.7-.1-2.5-.1-2.2-.1-3.9-1.2-4.9-3.1-.7-1.4-1.3-2.8-1.6-4.3-3.3-15.6-7.7-31-13.1-45.9-2.8-7.7-6.3-15.1-9.8-22.6-1.1-2.4-3.1-4.5-5-6.3-2.1-2-4.3-1.6-5.8.8-1 1.5-1.8 3.2-2.2 4.9-2.1 8.2-1.4 16.5-.2 24.7 2.3 15.6 5.1 31.1 7.5 46.6 1.2 8.2 2.1 16.5 2.6 24.7.2 3.1-.6 6.4-1.5 9.4-1.3 4.1-4.4 5.2-8.3 3.5-1.2-.5-2.4-1.2-3.4-2-9.9-7.8-17-17.7-22.1-29-1.3 1-1.9 1.8-1.4 3.7.7 2.7 1.6 5.3 2.8 7.8.2.5.5.9.7 1.4.7.7 1.1 1.6 1.3 2.5 2 3.8 4.1 7.6 5.9 11.6 1 2.1 1.4 4.7 1.5 7 .1 1-1 2.4-1.9 3.1-.4.3-2.1-.8-2.7-1.6-1.8-2.5-3.3-5.2-4.9-7.7-1.3-2-2.7-4.1-4.2-6-.5-.7-1.6-.9-2.4-1.4-.2.2-.3.4-.5.6 2.6 4.2 5.2 8.5 7.8 12.7-4.4-.2-6.7-3.2-9.6-6.2-1.1 2.3-2.2 4.2-2.8 6.3-.9 3.5-1.5 7.1-2.1 10.6-1.1 5.8-3 11.2-7.4 15.4-2 1.9-4.3 2.9-6.9 2-3.9-1.3-7.6-3-11.4-4.4-2.5-.9-4.9-1.9-7.5-2.4-2.4-.4-3.9.8-4.9 3.1-.9 2.2-.7 4.1 1.2 5.7 1.4 1.2 3 2.1 4.5 3 2.8 1.7 5.8 3.1 8.4 5 3.7 2.6 5 6.5 3.4 10.7-1.3 3.5-3.5 6.6-5.3 9.9-1.6 2.9-4.1 3.4-7 2.5-4.3-1.3-8.6-2.8-12.9-4.1-1.8-.5-3.8-1-5.7-.9-.4 0-.9.2-1.4.5-.3 1.7-.8 3.3-1.4 5 0 .1-.1.2-.1.3l.3.3c1.3 1.2 2.8 2.4 4.4 3.2 3.3 1.7 6.8 3.2 10.1 4.9 2.3 1.2 4.7 2.5 6.8 4.1 3 2.3 3.2 5 .4 7.6-1.8 1.6-3.8 3-5.9 4.2-2.3 1.3-4.7 2.4-7.2 3.6 3.2.7 4.2 2.2 3.8 5.8-.9 7.6-3.6 14.5-9.1 20.2 1.8.8 3.6 1.7 5.5 2.5 1.7.8 3.4 1.6 5 2.6 3.2 2 3.1 3.9-.3 5.6-1.3.7-2.9.9-4.3 1.5-2.2.9-4.4 1.6-6.5 2.8-1.3.7-2.9 2-2.1 3.6.6 1.1 2.2 1.9 3.6 2.3 1.6.4 3.3.2 5 .2 1.3 0 2.5-.1 3.8-.1 4.9.1 6.3 2.3 4.3 6.7-.8 1.7-1.8 3.3-2.8 4.9-.9 1.5-2 3-3 4.6-1.9 3-1.8 4.2.6 6.9 1.5 1.7 3.2 3.1 4.7 4.8 2.7 3 2.6 5.5-.3 8.4-3 3-6.5 4.9-10.6 6.1-1.2.3-2.5.5-3.6 1.1-6.5 3.5-12.5 7.6-17.9 12.7-1.4 1.3-2.7 2.8-3.8 4.4-.6.9-.8 2.2-1.2 3.3.2.1.3.2.5.3.4-.3.8-.7 1.3-1 4.6-2.8 9-6.2 13.9-8.4 10.8-4.8 21.5-4.4 30.7 3.7 10.6 9.3 14.6 21.5 13.5 35.4-.5 5.5-2.4 10.5-6.7 14.2-1.4 1.2-3.1 2.2-4.7 3.3 1.5 1.9 2.7 2.3 4.6 1 2.2-1.5 4.3-3.2 6-5.2 4.1-5 7.9-10.1 11.7-15.3 2.2-3.1 5.2-4.6 8.6-5.5 4.3-1.1 7.1.5 8.1 4.9.5 2.1.6 4.3.7 6.4.1 4-.2 8-.1 11.9.1 3.8 1.9 4.8 5.1 2.6 2.5-1.7 4.7-3.7 7.1-5.5 2.7-2.1 4.6-2 7 .3 1 .9 1.7 2.2 2.2 3.5.6 1.4.9 2.9 1.3 4.4.9 3.1 2.9 5 6 5.8 1.5.4 3 .7 4.4 1.2 3 1.1 4.3 3 3.8 6.1-.4 2.2-1.1 4.3-2 6.3-1.5 3.4-3.5 6.5-5 9.9-1 2.3-1.8 4.7-2.4 7.1-.4 1.6.2 3.2 1.6 4.3 2.7 2.1 6 1.6 7.2-1.7 1.4-3.8 2-7.8 3-11.7 1-4.2 1.6-8.5 3.2-12.5 2.4-6.2 7.9-7 12.6-2.2.9.9 1.7 1.9 2.5 2.8 2.2 2.2 4 2.4 6.5.7 1.4-1 2.6-2.3 3.9-3.4 1.9-1.6 3.6-3.3 5.7-4.5 3.4-2 6.3-1.1 8.2 2.5.8 1.5 1.6 3.2 1.8 4.9.8 6.2 1.3 12.5 1.8 18.7.2 2.2 0 4.5 0 6.7.3.1.6.1.9.2.8-1.7 1.7-3.3 2.3-5 1.4-4.4 2.4-8.9 3.9-13.2.7-2.2 1.7-4.3 2.9-6.2 1.2-1.8 2.2-1.6 3.9-.3 2.4 1.8 4.9 3.5 7.4 5.2-.7-4.2.5-7.4 2.8-10.4.7-1 1.6-2 2.5-2.8 7.7-7.2 16.8-11.9 26.9-14.6 3.7-1 7 0 9.6 2.7 1.7 1.8 3.1 3.9 4.8 5.8 1.8 2.1 3.7 4.2 5.6 6.1.8.7 1.9 1.1 3.4 1.8-.2-1.7-.2-2.8-.4-3.9-1.2-6.3-2.5-12.6-3.7-18.8-.4-2 .2-3.6 1.6-5.1 4.1-4.5 9.1-5.8 15-5.1 3.3.4 6.7.8 10 .7 5.9-.2 9-4 8.2-9.9-.4-3-1.1-6-1.6-9-1.3-7.2 1.1-12.2 7.6-15.6 1.7-.9 3.6-1.6 5.4-2.3 3.6-1.3 4.4-2.8 2.9-6.3-.9-2.3-2.3-4.5-3.3-6.8-.5-1.2-1-2.7-.9-4 .4-3.9 3-5.6 7.4-5 3 .4 6.1 1 9.1 1.2 2.8.2 4.3-1.1 4.7-3.5.4-2.5-.5-3.8-3.3-4.8-2-.7-4.2-1.1-6.1-2-3.1-1.4-3.2-5-.3-6.8 1.2-.7 2.5-1.4 3.8-1.7 4.9-1.1 9.9-2.3 14.9-3 2.5-.4 5.1-.5 7.7-.6.4-.6.8-1.1 1.5-1.6-2.3-.8-3.6-1.5-5-2.1zm-25.5 69c8.7 2.1 12.3 9.5 16.9 15.8-3.2 1.9-5.9 1.6-8.7-1-4.4-4-6.6-9.3-8.2-14.8z"/><path class="st0" d="M343.1 327.7c-1.2 4.1 6.8 5.1 6.1 10.1-5.6-3.3-7.3-5.9-6.1-10.1z"/><path class="st1" d="M56.7 286.2L37 295.3l22.4-4.1c1.2-.2 2.2-.1 2.9.3.7.5 1.2 1.1 1.3 2.1.2.9 0 1.7-.5 2.4s-1.4 1.1-2.6 1.4l-25.6 4.7c-1.4.3-2.4.1-3.1-.6-.6-.7-1.1-1.6-1.3-2.9l-.4-2.1c-.2-1.3-.3-2.2-.2-2.8.1-.6.4-1.1 1-1.5.5-.4 1.4-.9 2.6-1.4l16.9-8.1-18.6-1.6c-1.4-.1-2.4-.3-3-.4-.6-.2-1.1-.5-1.4-1s-.6-1.4-.8-2.7l-.4-2.1c-.2-1.3-.2-2.3.2-3.2.4-.8 1.2-1.4 2.7-1.7l25.6-4.7c1.2-.2 2.2-.1 2.9.3.7.5 1.2 1.2 1.3 2.1.2.9 0 1.7-.5 2.4s-1.4 1.1-2.6 1.4l-22.4 4.1 21.6 1.6c1.4.1 2.4.2 3.1.3.7.1 1.3.4 1.9.9.6.5 1 1.3 1.2 2.3.1.8.1 1.5-.1 2.1-.2.6-.6 1.1-1 1.5-.5.4-1 .7-1.6 1l-1.8.9z"/><path class="st1" d="M33.7 302.7c-.9 0-1.7-.3-2.3-.9-.8-.9-1.3-1.9-1.4-3.2l-.4-2.1c-.2-1.4-.3-2.3-.2-3 .1-.8.5-1.4 1.2-1.8.5-.4 1.5-1 2.7-1.4l15.2-7.3-16.8-1.4c-1.2-.1-2.1-.2-2.7-.4l-.3-.1c-.9-.3-1.4-.7-1.7-1.2-.4-.6-.7-1.6-.9-2.9l-.4-2.1c-.2-1.6-.2-2.6.2-3.5.5-1 1.5-1.7 3.1-2l25.6-4.7c1.3-.2 2.4-.1 3.2.4.9.7 1.4 1.5 1.5 2.5.2 1 0 1.9-.6 2.7-.5.7-1.4 1.2-2.9 1.6l-18.6 3.4 17.7 1.3c1.3.1 2.4.2 3.1.3.8.1 1.5.4 2.1 1 .7.6 1.1 1.4 1.4 2.6.1 1 .1 1.7-.1 2.4-.2.6-.6 1.1-1.1 1.7-.5.4-1.1.8-1.7 1.1l-1.8.9-16.1 7.4 18.5-3.4c1.3-.2 2.4-.1 3.2.4.7.5 1.4 1.2 1.5 2.5.2.9 0 1.9-.6 2.7-.5.7-1.4 1.2-2.9 1.6L35 302.6c-.5.1-.9.1-1.3.1zm22.1-37c-.3 0-.7 0-1.1.1l-25.6 4.7c-1.2.2-2 .7-2.3 1.4-.3.7-.4 1.6-.2 2.9l.4 2.1c.2 1.1.4 2 .7 2.5.2.3.6.6 1.1.8h.2c.6.1 1.5.3 2.6.3l20.4 1.8-18.6 8.9c-1.1.5-2 .9-2.5 1.3-.5.3-.7.7-.8 1.2-.1.5 0 1.4.2 2.6l.4 2.1c.2 1.1.5 1.9 1.2 2.7.6.6 1.4.7 2.6.4l25.6-4.7c1.2-.3 1.9-.7 2.3-1.2.4-.6.6-1.3.4-2-.1-.8-.4-1.3-1.1-1.8-.5-.3-1.4-.4-2.5-.2l-26.3 4.8L58 284.7c.6-.3 1.1-.6 1.5-.9.4-.4.7-.8.8-1.3.2-.5.2-1.1.1-1.9-.2-.9-.5-1.6-1-2-.6-.5-1.1-.7-1.7-.8-.7-.1-1.8-.2-3.1-.3l-25.5-1.9 26.2-4.8c1.2-.3 1.9-.7 2.3-1.2.4-.6.6-1.3.4-2-.1-.8-.5-1.3-1.1-1.8.1 0-.4-.1-1.1-.1zm-24.9-36.9l-.6 15.4 8.1.3.6-14.2c0-1 .3-1.8.8-2.3s1.1-.7 1.8-.7 1.3.3 1.8.8.7 1.3.6 2.4l-.6 14.2 9.4.4.7-15.9c0-1.1.3-1.9.8-2.4s1.2-.8 2-.7c.8 0 1.4.3 1.9.9s.7 1.4.6 2.5l-.8 18.6c-.1 1.5-.4 2.5-1.1 3.2-.7.6-1.7.9-3.2.9l-24.7-1c-1 0-1.7-.2-2.3-.5-.6-.3-1-.8-1.3-1.4s-.4-1.4-.3-2.4l.7-18c0-1.1.3-1.9.8-2.4s1.1-.7 1.9-.7 1.4.3 1.8.9c.4.2.6 1 .6 2.1z"/><path class="st1" d="M53.7 252.7l-24.7-1c-.9 0-1.7-.2-2.5-.6-.6-.3-1.1-.9-1.5-1.6-.3-.7-.5-1.6-.4-2.7l.7-18c0-1.2.3-2.1.9-2.7.6-.6 1.3-.8 2.3-.8.9 0 1.7.3 2.1 1 .5.3.8 1.2.8 2.5l-.6 14.9 7.1.3.6-13.7c0-1.1.3-2 .9-2.6.6-.6 1.3-.8 2.2-.8.8 0 1.5.3 2.2.9.6.6.9 1.5.7 2.8l-.6 13.7 8.4.4.7-15.4c0-1.2.3-2.1.9-2.7.7-.7 1.5-1 2.4-.8.9 0 1.6.4 2.2 1.1.6.7.8 1.6.7 2.9l-.8 18.6c-.1 1.7-.5 2.8-1.2 3.5-.8.5-1.9.8-3.5.8zm-25.2-26.4c-.7 0-1.2.2-1.5.6-.4.4-.7 1.1-.7 2l-.7 18c-.1.9 0 1.6.2 2.2.3.6.6 1 1.1 1.2.6.3 1.3.4 2.1.4l24.7 1c1.3 0 2.2-.2 2.9-.8.5-.5.8-1.4.9-2.9l.8-18.6c.1-1-.1-1.7-.5-2.2-.4-.5-.9-.7-1.5-.7-.7-.1-1.2.1-1.6.6-.4.4-.7 1.1-.7 2l-.7 16.4-10.4-.4.6-14.7c.1-1-.1-1.6-.5-2-.4-.4-.9-.7-1.4-.7-.6 0-1.1.2-1.4.6-.4.4-.7 1.1-.7 1.9l-.6 14.8-9.1-.3.6-15.9c0-1.2-.3-1.6-.3-1.6l-.2-.2c-.3-.5-.8-.7-1.4-.7zm6.7-28.4l22.3-7.1-18.8-5.5c-1.2-.4-2.1-.9-2.5-1.6-.5-.7-.5-1.5-.3-2.4.3-.9.8-1.6 1.6-2s1.8-.4 3 0l24.8 7.3c2.8.8 3.8 2.4 3.1 4.8-.2.6-.4 1.1-.7 1.5s-.7.8-1.2 1.1-1 .6-1.6.8l-1.8.6-22 6.9 18.5 5.4c1.2.4 2 .9 2.5 1.7.4.8.5 1.6.3 2.5-.3.9-.8 1.6-1.6 2s-1.8.4-3 0l-24.4-7.2c-1-.3-1.8-.7-2.3-1.1-.6-.5-1-1.1-1.2-1.9s-.2-1.5 0-2.3c.2-.6.4-1.1.7-1.4.3-.4.7-.7 1.1-.9s.9-.4 1.5-.6c.7-.2 1.3-.4 2-.6z"/><path class="st1" d="M59.5 214.7c-.6 0-1.2-.1-1.8-.3l-24.4-7.2c-1-.3-1.9-.7-2.5-1.2-.7-.6-1.2-1.3-1.4-2.2-.2-.9-.2-1.7 0-2.5.3-.8.5-1.3.8-1.6.4-.5.9-.8 1.2-1 .4-.2.9-.4 1.6-.6.4-.1.7-.2 1-.3.3-.1.7-.2 1-.3l20.7-6.6-17.2-5c-1.5-.5-2.4-1.1-2.8-1.8-.7-.9-.5-2-.4-2.8.4-1.1 1-1.9 1.9-2.3.9-.5 2.1-.5 3.4 0l24.8 7.3c1.6.5 2.7 1.2 3.3 2.2.5.9.6 2 .2 3.2-.2.6-.4 1.2-.8 1.7s-.8.9-1.3 1.2c-.5.3-1 .6-1.7.8l-1.8.6-20.4 6.4 16.9 4.9c1.4.5 2.2 1.1 2.8 1.9.5.9.6 1.9.4 2.9-.4 1.1-1 1.9-1.9 2.3-.5.2-1.1.3-1.6.3zm-20.7-35.2c-.4 0-.8.1-1.1.2-.6.3-1.1.9-1.3 1.7-.2.9-.1 1.5.2 2 .3.6 1.1 1 2.3 1.4l20.4 6-23.9 7.6c-.3.1-.7.2-1 .3-.3.1-.7.2-1 .3-.6.2-1 .4-1.4.6-.3.1-.6.4-.9.8-.3.3-.5.8-.6 1.3-.2.7-.2 1.3 0 2s.5 1.2 1 1.6c.5.4 1.2.7 2.1 1l24.4 7.2c1.1.4 2 .4 2.6 0 .6-.3 1.1-.9 1.3-1.7.2-.7.1-1.4-.3-2.1-.4-.6-1.1-1.1-2.2-1.4l-20.1-5.9 25.4-8c.5-.2 1-.5 1.5-.8.4-.2.8-.6 1.1-1 .3-.4.5-.9.6-1.4.3-1 .3-1.8-.1-2.4-.4-.8-1.3-1.3-2.7-1.7l-24.8-7.3c-.5-.2-1-.3-1.5-.3zm39.7-31.2c1.7 1 3 2.3 3.9 4s1.2 3.7 1 5.9-1 4.5-2.4 6.9c-1.6 2.9-3.5 5-5.7 6.3-1.5.9-3.2 1.4-4.9 1.5-1.8.1-3.2-.2-4.4-.9-.7-.4-1.2-1-1.4-1.8s-.1-1.6.3-2.3c.4-.6.9-1 1.5-1.3.6-.2 1.4-.3 2.4-.1 1.1.1 2.1.2 3 .1s1.7-.4 2.6-1c.8-.6 1.6-1.5 2.4-2.8 1-1.8 1.4-3.4 1.2-5s-.9-2.7-2.1-3.4c-1-.5-1.9-.7-2.8-.4s-1.8.8-2.7 1.5c-.8.8-1.9 1.8-3.1 3.2-1.7 1.8-3.3 3.3-4.7 4.3s-3 1.7-4.6 1.9-3.2-.2-4.9-1.1c-1.6-.9-2.7-2.1-3.4-3.7-.7-1.6-.9-3.4-.6-5.4s1.1-4.2 2.4-6.4c1-1.8 2.1-3.2 3.3-4.3s2.4-1.8 3.6-2.3 2.3-.7 3.4-.6c1 .1 1.9.3 2.7.7.7.4 1.2 1 1.4 1.8.3.8.2 1.6-.2 2.3-.4.7-.8 1.1-1.4 1.3-.5.2-1.3.2-2.3.2-1.4-.1-2.6.1-3.6.5s-2 1.4-3 3.1c-.9 1.5-1.3 3-1.1 4.3.1 1.3.6 2.2 1.6 2.8.6.3 1.2.4 1.8.4.6-.1 1.2-.3 1.8-.7s1.2-.8 1.7-1.3l2.4-2.4c1.3-1.4 2.6-2.7 3.8-3.8s2.4-1.9 3.6-2.5 2.4-.8 3.7-.8c1 0 2.3.5 3.8 1.3z"/><path class="st1" d="M69.7 173.4c-1.6 0-2.8-.3-4-1-.8-.5-1.4-1.2-1.6-2.1-.2-.9-.1-1.9.4-2.7.4-.7 1-1.1 1.7-1.5.9-.3 1.8-.3 2.7-.1h.1c1 .1 1.9.2 2.7.1.8-.1 1.6-.4 2.4-.9.8-.6 1.5-1.5 2.3-2.6 1-1.7 1.3-3.2 1.1-4.7-.2-1.4-.8-2.4-1.9-3-.9-.5-1.7-.6-2.4-.4-.8.3-1.7.8-2.6 1.4l-.6.6c-.7.7-1.6 1.5-2.5 2.6-1.9 2-3.4 3.4-4.8 4.4-1.5 1.1-3.2 1.8-4.8 2-1.6.2-3.3-.2-5.2-1.2-1.7-1-2.9-2.2-3.6-3.9-.7-1.7-.9-3.6-.6-5.7.3-2.1 1.2-4.4 2.5-6.6 1-1.8 2.1-3.2 3.4-4.4 1.1-1 2.3-1.8 3.7-2.4 1.3-.5 2.5-.7 3.6-.6 1.2.1 2.1.4 2.9.8.9.5 1.4 1.2 1.7 2.1.3.8.2 1.8-.3 2.7-.5.8-1 1.3-1.7 1.5-.6.2-1.4.2-2.5.2-1.3-.1-2.4.1-3.4.5-.9.4-1.8 1.3-2.8 2.9-.9 1.4-1.2 2.8-1 4 .1 1.2.5 1.9 1.4 2.4.4.2.9.3 1.5.3.5-.1 1-.3 1.5-.6.6-.4 1.2-.8 1.6-1.2l2.4-2.4c1.3-1.4 2.6-2.7 3.8-3.8 1.2-1.1 2.4-1.9 3.7-2.6 1.2-.6 2.4-.9 3.9-.9 1 0 2.3.4 4 1.4 1.8 1.1 3.2 2.4 4.1 4.2.9 1.7 1.3 3.8 1.1 6.2-.2 2.3-1 4.7-2.5 7.1-1.6 3-3.6 5.1-5.9 6.5-1.5.9-3.3 1.5-5.1 1.6.1-.2-.1-.2-.4-.2zm-2-6.5c-.4 0-.8.1-1.2.2-.5.3-.9.6-1.2 1.1-.3.6-.4 1.2-.2 1.9.2.6.6 1.1 1.2 1.5 1.1.7 2.4.9 4.1.8 1.7-.1 3.3-.6 4.7-1.4 2.1-1.2 4-3.3 5.5-6.1 1.4-2.3 2.1-4.6 2.3-6.7.2-2.2-.1-4.1-.9-5.6-.8-1.6-2-2.8-3.7-3.8-1.6-.8-2.7-1.2-3.6-1.2-1.4 0-2.4.2-3.5.7-1.2.6-2.4 1.4-3.5 2.4-1.2 1.1-2.5 2.4-3.8 3.8l-2.4 2.4c-.5.5-1.2 1-1.8 1.4-.6.4-1.2.7-2 .8-.8 0-1.5-.1-2.1-.4-1.2-.7-1.8-1.7-1.9-3.2-.2-1.4.2-3 1.2-4.6 1-1.8 2.1-2.9 3.2-3.3 1.1-.5 2.4-.6 3.8-.5.9 0 1.7 0 2.1-.2.5-.2.8-.5 1.2-1.1.3-.6.4-1.2.2-1.9s-.6-1.2-1.2-1.5c-.7-.3-1.5-.5-2.5-.6-1-.1-2 .1-3.2.6-1.3.5-2.4 1.2-3.5 2.2-1.2 1.1-2.3 2.5-3.2 4.2-1.2 2.1-2 4.2-2.3 6.2-.3 1.9-.1 3.6.6 5.1.7 1.5 1.7 2.6 3.2 3.5 1.7.9 3.2 1.2 4.6 1 1.5-.2 3-.8 4.4-1.8 1.3-.9 2.8-2.3 4.6-4.2.9-1.1 1.8-1.9 2.5-2.6l.6-.6c1-.8 1.9-1.3 2.9-1.6 1-.3 2-.2 3.2.4 1.4.8 2.2 2 2.4 3.8.2 1.7-.2 3.4-1.3 5.3-.8 1.3-1.6 2.3-2.5 3-1 .7-1.8 1-2.8 1.1-.9.1-1.9 0-3-.1h-.1c-.4-.4-.7-.4-1.1-.4zm20.9-58.3L78.2 120l6 5.4 9.6-10.5c.7-.8 1.4-1.2 2.1-1.3.7-.1 1.3.1 1.9.6s.8 1.1.8 1.8-.3 1.4-1.1 2.2l-9.6 10.5 6.9 6.3 10.7-11.8c.7-.8 1.5-1.2 2.2-1.3.7-.1 1.4.2 2 .7s.9 1.2.9 1.9-.4 1.5-1.1 2.3L97 140.5c-1 1.1-2 1.7-2.9 1.7s-1.9-.4-3-1.4l-18.3-16.7c-.7-.6-1.2-1.3-1.4-1.9-.3-.6-.3-1.3-.1-1.9s.6-1.3 1.3-2L84.8 105c.7-.8 1.5-1.2 2.2-1.3.7-.1 1.3.1 1.9.7.6.5.9 1.1.9 1.9-.1.7-.5 1.5-1.2 2.3z"/><path class="st1" d="M94.1 142.7c-1.1 0-2.2-.5-3.3-1.5l-18.3-16.7c-.7-.6-1.3-1.4-1.5-2.1-.3-.6-.4-1.4-.1-2.2.3-.8.7-1.5 1.4-2.2l12.2-13.3c.7-.8 1.6-1.3 2.5-1.5.9-.1 1.6.2 2.3.8.7.6 1 1.3 1 2.3-.1.9-.6 1.8-1.3 2.6l-10.1 11 5.3 4.7 9.3-10.1c.7-.8 1.5-1.3 2.4-1.5.8-.1 1.6.1 2.3.7.7.5 1 1.3 1 2.2 0 .9-.4 1.7-1.2 2.6l-9.2 10.1 6.2 5.6 10.4-11.4c.7-.8 1.6-1.3 2.5-1.5.8-.1 1.6.2 2.4.8.7.6 1.1 1.4 1.1 2.3 0 .8-.4 1.7-1.2 2.6l-12.5 13.7c-1.4 1.4-2.6 2-3.6 2zm-6.8-38.5H87c-.7.1-1.3.5-1.9 1.1L73 118.6c-.7.7-1.1 1.4-1.2 1.8-.2.5-.1 1.1.1 1.5.2.6.7 1.2 1.3 1.7l18.3 16.7c.9.8 1.8 1.3 2.7 1.3.7 0 1.6-.5 2.5-1.5l12.5-13.7c.6-.7 1-1.4 1-2 0-.6-.3-1.1-.7-1.5-.4-.3-1-.7-1.6-.6-.7.1-1.3.5-1.9 1.1l-11 12.2-7.6-7 9.9-10.9c.9-.9 1-1.5 1-1.9 0-.6-.2-1.1-.6-1.4-.5-.4-1-.6-1.5-.5-.6.1-1.2.5-1.8 1.1l-9.9 10.9-6.7-6.1L88.5 108c.6-.7 1-1.4 1.1-2 0-.6-.2-1-.7-1.4-.7-.2-1.1-.4-1.6-.4zM111 87.7l21.8 8.7-11-16.2c-.7-1.1-1-2-.9-2.8s.6-1.5 1.3-2.1c.8-.6 1.6-.7 2.5-.5.8.2 1.6.8 2.3 1.9l14.5 21.4c1.6 2.4 1.4 4.3-.6 5.7-.5.3-1 .6-1.5.7s-1 .2-1.6.1-1.1-.2-1.7-.4c-.6-.2-1.2-.4-1.8-.7l-21.4-8.7 10.8 16c.7 1 1 2 .9 2.9s-.6 1.6-1.4 2.1-1.6.7-2.5.5-1.6-.8-2.3-1.9l-14.2-21c-.6-.9-1-1.7-1.1-2.3-.1-.7 0-1.4.3-2.2s.8-1.3 1.5-1.8c.5-.3 1-.6 1.5-.6.5-.1.9-.1 1.4 0s1 .3 1.6.5 1 .4 1.6.7z"/><path class="st1" d="M121.4 116.9c-.3 0-.5 0-.8-.1-1-.2-1.8-.9-2.6-2.1l-14.2-21c-.7-1-1.1-1.9-1.2-2.5-.1-.8 0-1.6.3-2.5.4-1 1-1.6 1.7-2 .6-.4 1.2-.7 1.8-.7.5-.1.9-.1 1.5 0 .4.1.8.2 1.2.4l.4.2c.6.2 1.1.4 1.6.7l20.3 8.1-10.1-14.8c-.8-1.2-1.1-2.2-1-3.1.1-.9.6-1.7 1.5-2.4s1.8-.9 2.9-.6c1 .2 1.9 1 2.6 2.1L141.8 98c2.2 3.3.8 5.3-.7 6.4-.6.3-1.1.7-1.7.8-.5.1-1.1.2-1.8.1-.6-.1-1.2-.2-1.8-.4-.6-.2-1.2-.4-1.9-.7l-19.8-8.1 9.9 14.6c.8 1.1 1.1 2.2 1 3.2-.1 1-.7 1.9-1.6 2.5-.6.3-1.3.5-2 .5zm-14.3-30c-.2 0-.4 0-.6.1-.5 0-.9.3-1.3.5-.6.4-1 .8-1.3 1.5-.3.7-.4 1.3-.3 2 .1.3.3 1 1 2.1l14.2 21c.7 1 1.2 1.5 2 1.7.7.2 1.4 0 2.1-.4.7-.4 1.1-1 1.2-1.7.1-.8-.2-1.7-.8-2.6l-11.7-17.4 22.9 9.3c.6.3 1.2.5 1.8.7.6.2 1 .3 1.6.4.5.1 1 0 1.4-.1.4-.1.9-.4 1.3-.6 1.7-1.2 1.9-2.8.4-5L126.6 77c-.6-.9-1.3-1.5-2-1.7-.8-.2-1.4-.1-2.1.4-.6.6-1 1.2-1.1 1.8-.1.7.2 1.5.8 2.5l11.9 17.5-23.4-9.3c-.6-.3-1-.5-1.5-.7l-.5-.2c-.4-.1-.8-.3-1.1-.3-.1-.1-.3-.1-.5-.1zM313 103.3l7.6-20.3-13 18.7c-.7 1-1.5 1.6-2.3 1.8s-1.6 0-2.4-.5-1.2-1.2-1.3-2.1c-.1-.8.2-1.8.9-2.8l14.9-21.4c.8-1.2 1.7-1.8 2.6-1.7.9 0 1.9.4 3 1.2l1.7 1.2c1 .7 1.7 1.3 2.1 1.9.3.5.5 1.1.4 1.7s-.4 1.6-.9 2.9l-6.3 17.6 14.3-12c1-.9 1.8-1.5 2.4-1.8s1.1-.4 1.7-.3 1.4.6 2.5 1.3l1.7 1.2c1.1.7 1.8 1.5 2.1 2.4.3.8.1 1.9-.7 3l-14.9 21.4c-.7 1-1.5 1.6-2.3 1.8-.8.2-1.6 0-2.4-.5-.7-.5-1.2-1.2-1.3-2-.1-.8.2-1.8.9-2.8l13-18.7-16.4 14.1c-1.1.9-1.9 1.6-2.4 2s-1.2.6-2 .7-1.6-.2-2.5-.8c-.7-.5-1.1-1-1.4-1.6s-.4-1.2-.3-1.8c0-.6.2-1.2.4-1.8.2-.6.4-1.3.6-2z"/><path class="st1" d="M326.2 119.1c-.7 0-1.4-.2-2-.7-.9-.6-1.4-1.5-1.5-2.4-.1-1 .2-2.1 1-3.1l10.8-15.5-13.6 11.6c-.6.5-1.1.9-1.5 1.3-.4.3-.7.6-.9.8-.5.4-1.2.7-2.3.8-.9.1-1.8-.2-2.8-.9-.7-.5-1.2-1.1-1.6-1.8-.3-.7-.5-1.4-.3-2.1 0-.6.2-1.2.4-1.9.2-.6.4-1.3.6-2l6.2-16.6L308 102c-.7 1.1-1.6 1.8-2.6 2-.9.2-1.8 0-2.8-.6-.9-.6-1.4-1.4-1.5-2.5-.1-.9.2-2.1 1-3.1L317 76.4c1.2-1.7 2.3-2 3.1-1.9.9 0 2.1.4 3.2 1.3L325 77c1.1.8 1.8 1.4 2.2 2 .4.7.6 1.4.5 2.1-.1.7-.4 1.7-.9 3l-5.7 15.9L334 89.1c1-.9 1.9-1.5 2.5-1.9.7-.4 1.3-.5 2-.3.7.1 1.5.6 2.7 1.4l1.7 1.2c1.2.7 2 1.6 2.3 2.7.4 1 .1 2.3-.8 3.5L329.5 117c-.7 1.1-1.6 1.8-2.6 2-.2 0-.5.1-.7.1zm13.5-27.5l-15.2 21.9c-.6.9-.9 1.8-.8 2.5.1.6.5 1.2 1.1 1.7.7.4 1.4.6 2 .4.7-.2 1.4-.7 2-1.6L343.6 95c.7-.9.9-1.9.6-2.5-.3-.8-.9-1.5-1.9-2.2l-1.7-1.2c-.9-.6-1.8-1.1-2.3-1.2-.5-.1-.9 0-1.4.3-.6.3-1.3.9-2.3 1.7l-15.7 13.2 6.9-19.3c.5-1.2.8-2.2.9-2.8.1-.5-.1-1-.3-1.4-.3-.5-.9-1-2-1.7l-1.7-1.2c-1-.7-1.9-1.1-2.7-1.1-.9-.1-1.7.7-2.2 1.5l-14.9 21.4c-.6.9-.9 1.8-.8 2.5.1.8.4 1.3 1.1 1.7.7.5 1.4.6 2 .4.7-.2 1.4-.7 2-1.6l15.3-22-9 24c-.2.7-.4 1.4-.6 2-.2.6-.4 1.1-.4 1.6-.1.6 0 1.1.2 1.6.3.6.7 1 1.2 1.4.8.6 1.5.8 2.1.7.8-.1 1.4-.3 1.8-.6.2-.2.5-.4.9-.7.4-.4.9-.8 1.5-1.3l19.5-16.6zm32.3 35.1l-10.1-11.6-6.1 5.3 9.3 10.7c.7.8 1 1.5 1 2.2s-.3 1.3-.9 1.8-1.2.7-1.9.6c-.7-.1-1.4-.5-2.1-1.3l-9.3-10.7-7.1 6.2 10.5 12c.7.8 1.1 1.6 1 2.3 0 .7-.3 1.4-.9 1.9s-1.2.7-2 .6c-.7-.1-1.4-.5-2.1-1.4l-12.2-14c-1-1.1-1.4-2.1-1.4-3.1s.6-1.8 1.7-2.8l18.7-16.3c.7-.6 1.4-1 2.1-1.2.6-.2 1.3-.1 1.9.2.6.3 1.2.8 1.9 1.5l11.9 13.6c.7.8 1.1 1.6 1.1 2.3 0 .7-.3 1.3-.9 1.8s-1.2.7-1.9.6c-.8.1-1.5-.4-2.2-1.2z"/><path class="st1" d="M353.8 147.2h-.5c-.9-.1-1.7-.6-2.4-1.6l-12.2-14c-1-1.1-1.5-2.2-1.5-3.4 0-1.2.7-2.2 1.9-3.2l18.7-16.3c.8-.6 1.5-1.1 2.3-1.3.7-.2 1.5-.1 2.3.2.6.3 1.2.8 2 1.6l11.9 13.6c.8.9 1.2 1.8 1.2 2.6 0 .9-.4 1.6-1.1 2.2-.7.6-1.4.8-2.2.7-1.1.1-2-.7-2.6-1.4l-9.8-11.2-5.3 4.6 9 10.3c.8.9 1.1 1.7 1.1 2.5 0 .9-.4 1.6-1.1 2.2-.7.6-1.5.8-2.3.7-.9-.1-1.7-.6-2.4-1.5l-9-10.3-6.3 5.5 10.2 11.6c.9 1 1.2 1.9 1.1 2.7 0 .8-.4 1.6-1.1 2.2-.6.8-1.2 1-1.9 1zm7.1-38.9c-.2 0-.4 0-.5.1-.6.2-1.3.6-1.9 1.1l-18.7 16.3c-1.1 1-1.5 1.7-1.5 2.4 0 .9.4 1.8 1.3 2.8l12.2 14c.6.7 1.2 1.1 1.8 1.2.6.1 1.1-.1 1.6-.5s.7-.9.7-1.5c.1-.6-.2-1.2-.9-2l-10.8-12.4 7.9-6.9 9.6 11.1c.6.7 1.2 1 1.8 1.1.6.1 1-.1 1.5-.5s.7-.9.7-1.4c0-.6-.3-1.2-.9-1.9l-9.6-11.1 6.9-6 10.4 12c.7.8 1.2 1.1 1.8 1h.2c.5.1 1-.1 1.5-.5s.7-.9.7-1.4c0-.6-.3-1.3-1-2l-11.9-13.6c-.7-.7-1.2-1.1-1.7-1.4-.6.1-.9 0-1.2 0zm29.3 43L379.1 172l17.4-9.1c1.1-.6 2.1-.8 2.9-.6s1.5.7 1.9 1.6c.5.9.5 1.7.2 2.5s-1 1.5-2.1 2.1l-22.9 12c-2.6 1.3-4.4.9-5.5-1.3-.3-.5-.5-1.1-.5-1.6-.1-.5 0-1.1.1-1.6s.3-1.1.6-1.7c.3-.6.6-1.1.9-1.7l11-20.3-17.1 8.9c-1.1.6-2.1.8-2.9.5-.8-.2-1.5-.8-1.9-1.6-.4-.9-.5-1.7-.2-2.5s1-1.5 2.1-2.1l22.5-11.8c1-.5 1.8-.8 2.4-.9.7-.1 1.4.1 2.1.5s1.2.9 1.6 1.6c.3.5.4 1.1.5 1.5 0 .5 0 .9-.2 1.4-.1.4-.4.9-.7 1.5-.5.9-.8 1.5-1.1 2z"/><path class="st1" d="M373.9 181.7c-.3 0-.6 0-.8-.1-1.1-.2-1.9-1-2.5-2.2-.3-.6-.6-1.2-.6-1.8-.1-.5 0-1.1.1-1.7.1-.6.3-1.2.6-1.8.2-.3.3-.6.5-.9.1-.3.3-.5.4-.8l10.2-18.9-15.7 8.1c-1.3.7-2.4.9-3.3.5-.9-.2-1.7-.9-2.2-1.8-.5-1.1-.6-2-.2-2.9.3-.9 1.1-1.7 2.3-2.4l22.5-11.8c1.1-.5 1.9-.8 2.6-1 .8-.1 1.6.1 2.4.6.8.4 1.3 1 1.8 1.8.3.5.4 1 .5 1.4l.1.3c0 .5 0 1-.2 1.6-.1.3-.3.7-.5 1.1l-.2.4c-.2.4-.4.7-.5 1-.2.4-.4.7-.6 1l-10.3 19.3 16-8.3c1.2-.7 2.3-.9 3.3-.6 1 .3 1.8.9 2.2 1.9.5.9.6 1.9.2 2.9-.3.9-1.1 1.7-2.3 2.4l-22.9 12c-1.1.5-2.1.7-2.9.7zm10.4-30.6l-11.8 21.7c-.1.3-.3.6-.5.9-.1.3-.3.5-.4.8-.3.5-.5 1.1-.6 1.6-.1.5-.2 1-.1 1.4 0 .5.2 1 .4 1.4.5 1 1.1 1.6 1.9 1.7.8.2 1.8 0 3-.6l22.9-12c1-.5 1.6-1.2 1.9-1.8.3-.7.2-1.4-.2-2.1-.3-.7-.9-1.2-1.6-1.4-.7-.2-1.6 0-2.5.6l-18.8 9.9 11.9-22.2c.2-.3.3-.6.6-1 .2-.3.3-.6.5-1l.2-.4c.2-.4.4-.7.4-.9.2-.5.2-.8.2-1.2v-.2c-.1-.3-.2-.8-.4-1.1-.4-.6-.8-1.1-1.4-1.4-.7-.4-1.2-.5-1.8-.4-.5.1-1.3.4-2.2.9l-22.5 11.8c-1 .5-1.6 1.2-1.9 1.8-.2.6-.2 1.3.2 2.1.3.7.9 1.2 1.6 1.3.7.3 1.5.1 2.5-.5l18.5-9.7zm9.2 66.1c-1.9.5-3.8.4-5.6-.2-1.8-.6-3.4-1.8-4.8-3.6-1.4-1.7-2.4-4-3.1-6.7-.8-3.2-.9-6-.3-8.4.5-1.7 1.3-3.2 2.5-4.5s2.5-2.1 3.8-2.5c.8-.2 1.5-.1 2.2.3s1.2 1.1 1.4 1.9c.2.7.1 1.3-.2 1.9-.3.6-.9 1.2-1.6 1.7-.9.7-1.6 1.3-2.2 2s-.9 1.5-1.2 2.5c-.2 1-.1 2.2.2 3.6.5 2 1.4 3.4 2.6 4.4s2.5 1.3 3.8 1c1.1-.3 1.8-.8 2.3-1.7.5-.8.8-1.8.9-3 .1-1.1.1-2.6 0-4.5-.1-2.5.1-4.6.4-6.4s1-3.3 2-4.5 2.4-2.1 4.3-2.6c1.8-.4 3.4-.4 5.1.3 1.6.6 3 1.8 4.2 3.5s2.1 3.8 2.8 6.3c.5 2 .7 3.8.6 5.4s-.4 3-1 4.1-1.2 2.1-2 2.8-1.6 1.1-2.4 1.3-1.5.1-2.3-.3-1.2-1-1.5-1.9c-.2-.8-.2-1.4.1-1.9.3-.5.8-1.1 1.5-1.7 1.1-.9 1.8-1.9 2.3-2.9s.5-2.4 0-4.3c-.4-1.7-1.2-3-2.2-3.9s-2-1.2-3-.9c-.6.2-1.1.5-1.5 1s-.6 1.1-.8 1.8c-.2.7-.3 1.4-.3 2.1v3.4c0 2 0 3.7-.1 5.4-.1 1.6-.4 3.1-.9 4.3s-1.2 2.3-2.1 3.2c-1 1.1-2.3 1.8-3.9 2.2z"/><path class="st1" d="M391 218c-1.1 0-2.2-.2-3.3-.5-1.9-.6-3.6-1.9-5-3.8-1.4-1.6-2.4-4-3.2-6.9-.8-3.3-.9-6.2-.3-8.6.5-1.9 1.4-3.4 2.6-4.7 1.2-1.3 2.6-2.2 4-2.6.9-.2 1.8-.1 2.6.3.8.5 1.4 1.3 1.6 2.2.2.8.1 1.5-.2 2.2-.4.8-1.2 1.5-1.8 1.9-.8.6-1.5 1.2-2.1 1.9-.5.6-.8 1.3-1.1 2.3-.2.8-.1 1.9.2 3.4.4 1.8 1.2 3.1 2.4 4.1 1 .9 2.2 1.2 3.4.9 1-.3 1.5-.7 2-1.5.5-.7.7-1.7.8-2.8.1-1.1.1-2.6 0-4.4-.1-2.2 0-4.3.4-6.5.3-1.8 1-3.4 2.1-4.7 1.1-1.3 2.6-2.3 4.6-2.8 2.1-.5 3.8-.4 5.4.3 1.6.6 3.1 1.9 4.4 3.7 1.2 1.7 2.1 3.8 2.9 6.5.5 2.1.7 3.9.6 5.6-.1 1.8-.5 3.2-1.1 4.3-.6 1.1-1.2 2.2-2.1 2.9-.8.7-1.7 1.2-2.6 1.4-.9.2-1.7.1-2.6-.3-.9-.4-1.4-1.1-1.8-2.2-.2-.7-.3-1.6.1-2.3.3-.4.7-1.1 1.6-1.8.9-.8 1.6-1.6 2.2-2.7.4-.9.4-2.2 0-3.9-.4-1.5-1.1-2.8-2.1-3.7-.9-.8-1.7-1-2.5-.8-.5.2-.9.4-1.3.8s-.5 1-.7 1.6c-.2.7-.3 1.3-.3 2v3.4c0 2 0 3.7-.1 5.4-.1 1.7-.4 3.2-.9 4.5-.5 1.3-1.3 2.4-2.2 3.4-1 1.1-2.4 1.9-4.1 2.3-.7.1-1.6.2-2.5.2zm-4.2-26.3c-.2 0-.4 0-.7.1-1.3.4-2.5 1.2-3.6 2.4s-1.9 2.6-2.4 4.3c-.6 2.3-.5 5 .3 8.1.7 2.8 1.7 5 3 6.5 1.3 1.7 2.9 2.9 4.6 3.4 1.8.6 3.6.7 5.3.2 1.6-.4 2.8-1.1 3.7-2.1.8-.8 1.5-1.9 2-3.1.5-1.1.8-2.5.9-4.1.1-1.7.1-3.4.1-5.4v-3.4c0-.7.1-1.5.3-2.2.2-.7.4-1.4.9-2 .4-.5 1-.9 1.7-1.2 1.2-.4 2.4 0 3.5 1s2 2.5 2.4 4.2c.5 2 .5 3.5 0 4.6-.6 1.2-1.4 2.2-2.4 3.1-.6.5-1.1 1.1-1.4 1.6-.2.3-.2.8 0 1.5.3.8.6 1.3 1.2 1.6.7.4 1.3.4 2 .3.8-.2 1.5-.6 2.2-1.2.7-.6 1.2-1.5 1.9-2.7.5-1 .8-2.2.9-3.9.1-1.5-.1-3.3-.6-5.2-.7-2.5-1.6-4.5-2.7-6.1-1.2-1.7-2.5-2.8-4-3.3-1.5-.6-2.9-.7-4.8-.3-1.7.4-3.1 1.3-4 2.4-1 1.2-1.6 2.6-1.9 4.3-.4 2.1-.5 4.2-.4 6.3.1 1.9.1 3.4 0 4.6-.1 1.3-.4 2.4-1 3.2-.5 1-1.3 1.6-2.6 1.9-1.5.3-3 0-4.3-1.1-1.4-1.1-2.3-2.7-2.8-4.7-.3-1.6-.4-2.8-.2-3.8.3-1.2.7-2 1.3-2.7.6-.8 1.4-1.4 2.3-2.1.7-.5 1.2-1 1.5-1.5.3-.5.3-1 .2-1.5-.2-.7-.6-1.3-1.2-1.6-.4-.3-.8-.4-1.2-.4zm27.1 61l-.5-15.4-8.1.3.4 14.2c0 1-.2 1.8-.6 2.4-.4.5-1 .8-1.8.8-.7 0-1.4-.2-1.9-.7s-.7-1.3-.8-2.3l-.4-14.2-9.4.3.5 15.9c0 1.1-.2 1.9-.7 2.5s-1.1.9-1.9.9-1.4-.2-1.9-.8c-.5-.5-.8-1.3-.8-2.4l-.6-18.6c0-1.5.2-2.6.9-3.2.6-.7 1.7-1 3.1-1.1l24.7-.8c1 0 1.7.1 2.4.4.6.3 1.1.7 1.4 1.3s.5 1.4.5 2.4l.6 18c0 1.1-.2 1.9-.6 2.5-.5.5-1.1.8-1.8.9-.8 0-1.4-.2-1.9-.7-.5-.7-.8-1.5-.8-2.6z"/><path class="st1" d="M388.7 257.9c-1 0-1.7-.3-2.3-1-.6-.6-.9-1.5-.9-2.7l-.6-18.6c0-1.3.1-2.8 1.1-3.6.6-.7 1.7-1.1 3.4-1.2l24.7-.8c1.1 0 1.9.1 2.6.4.8.4 1.3.9 1.7 1.5.4.7.6 1.6.6 2.6l.6 18c0 1.2-.2 2.1-.7 2.8-.6.7-1.3 1-2.1 1.1-1 0-1.7-.3-2.3-.8-.7-.9-.9-1.8-.9-2.9l-.5-14.9-7.1.3.4 13.7c0 1.1-.2 2-.7 2.7-.5.7-1.3 1-2.2 1-.9 0-1.7-.3-2.3-.8-.7-.7-.9-1.7-.9-2.6l-.4-13.7-8.4.3.5 15.4c0 1.3-.3 2.2-.8 2.8-.8.6-1.6 1-2.5 1zm25.4-26.9l-24.7.8c-1.4.1-2.3.4-2.7.9-.6.5-.8 1.4-.8 2.9l.6 18.6c0 .9.2 1.6.7 2.1.4.5.8.7 1.5.7.6 0 1.1-.2 1.5-.7.4-.5.6-1.2.6-2.2l-.5-16.4 10.4-.3.4 14.7c.1 1 .3 1.6.7 2 .5.5 1.1.6 1.5.6.6 0 1.1-.2 1.4-.6.3-.5.5-1.2.5-2.1l-.4-14.7 9.1-.3.5 15.9c0 .9.2 1.6.7 2.3.3.3.8.5 1.5.5.5-.1 1-.3 1.4-.8.3-.4.5-1.2.5-2.1l-.6-18c0-.9-.2-1.6-.4-2.2-.2-.4-.6-.8-1.2-1.1-.6-.4-1.2-.5-2.2-.5zm-1.6 52.1l-21.6 9.1 19.2 3.8c1.2.2 2.1.7 2.6 1.4s.7 1.5.5 2.4c-.2 1-.7 1.7-1.4 2.1-.7.4-1.7.5-3 .3l-25.4-5c-2.8-.6-4-2-3.5-4.5.1-.6.3-1.1.6-1.6.3-.4.6-.8 1.1-1.2.5-.3 1-.7 1.5-.9.6-.3 1.1-.5 1.7-.8l21.3-8.9-18.9-3.8c-1.2-.2-2.1-.7-2.6-1.4s-.7-1.5-.5-2.4.7-1.6 1.4-2.1c.8-.4 1.7-.5 3-.3l24.9 4.9c1.1.2 1.9.5 2.4.9.6.4 1.1 1 1.3 1.7s.4 1.5.2 2.3c-.1.6-.3 1.1-.6 1.5-.3.4-.6.7-1 1s-.9.5-1.5.7c-.5.3-1.1.6-1.7.8z"/><path class="st1" d="M410 302.8c-.4 0-.8 0-1.3-.1l-25.4-5c-3.1-.7-4.4-2.4-3.9-5.1.1-.6.3-1.2.7-1.8.3-.5.7-.9 1.2-1.3.2-.1.4-.2.5-.3.3-.2.7-.5 1.1-.6.3-.1.5-.3.8-.4.3-.1.5-.2.8-.4l19.8-8.3L387 276c-1.3-.2-2.3-.8-2.9-1.6-.6-.9-.8-1.8-.6-2.8.2-1 .8-1.8 1.6-2.4 1-.5 2-.6 3.4-.4l24.9 4.9c1.2.2 2 .5 2.6 1 .7.5 1.2 1.2 1.5 2 .2.8.4 1.7.2 2.6-.1.6-.3 1.2-.7 1.7-.3.4-.7.8-1.1 1.1-.4.3-1 .5-1.6.8-.4.2-1 .6-1.7.8l-20.1 8.5 17.6 3.5c1.3.2 2.3.8 2.9 1.6.6.9.8 1.8.6 2.8-.2 1.1-.8 1.9-1.6 2.4-.5.1-1.2.3-2 .3zm-22.7-33.1c-.6 0-1.1.1-1.6.3-.6.4-1 1-1.1 1.8-.2.7 0 1.4.4 2 .4.6 1.2 1 2.3 1.2l20.5 4.1-22.8 9.5c-.3.1-.6.3-.8.4-.3.1-.5.2-.8.4-.3.1-.6.3-.9.5-.2.1-.3.2-.5.3-.4.3-.7.7-1 1.1-.3.4-.4.9-.5 1.4-.4 2.2.5 3.4 3.1 3.9l25.4 5c1.2.2 2.1.1 2.7-.2.6-.3 1-.9 1.2-1.8.2-.7 0-1.4-.4-2-.4-.6-1.2-1-2.3-1.2l-20.8-4.1 23.1-9.7c.6-.2 1.2-.5 1.6-.8h.1c.6-.2 1-.4 1.4-.6.4-.3.6-.5.9-.9.3-.3.4-.8.5-1.3.2-.7 0-1.4-.2-2.1-.2-.5-.6-1.1-1.1-1.4-.5-.4-1.2-.6-2.2-.8l-24.9-4.9c-.6-.1-.9-.1-1.3-.1z"/><path class="st0" d="M106.4 406.7l7.9-20.2-13.3 18.4c-.7 1-1.5 1.6-2.4 1.8-.8.2-1.6 0-2.4-.6-.7-.5-1.2-1.2-1.3-2.1-.1-.8.2-1.8 1-2.8l15.3-21.1c.8-1.2 1.7-1.7 2.6-1.7s1.9.4 2.9 1.2l1.7 1.2c1 .7 1.7 1.4 2 1.9s.4 1.1.3 1.7-.4 1.6-.9 2.9l-6.6 17.5 14.5-11.7c1.1-.9 1.9-1.4 2.4-1.8.6-.3 1.1-.4 1.7-.2.6.2 1.4.6 2.4 1.3l1.7 1.2c1.1.8 1.7 1.6 2.1 2.4.3.9.1 1.9-.8 3l-15.3 21.1c-.7 1-1.5 1.6-2.4 1.8-.8.2-1.6 0-2.4-.6-.7-.5-1.1-1.2-1.2-2.1s.2-1.8 1-2.8l13.3-18.4-16.4 14c-1.1.9-1.9 1.5-2.5 1.9s-1.2.6-2 .7-1.6-.2-2.5-.8c-.6-.5-1.1-1-1.3-1.6s-.3-1.2-.3-1.8c.1-.6.2-1.2.4-1.8.3-.6.6-1.3.8-1.9z"/><path class="st0" d="M118.9 422.5c-.7 0-1.4-.3-2.1-.8-.8-.6-1.3-1.4-1.4-2.4-.1-1.1.2-2.1 1.1-3.2l10.8-15-13.2 11.3c-1.1.9-1.9 1.5-2.5 1.9-.7.4-1.3.7-2.2.8-.9.1-1.8-.2-2.8-.9-.7-.5-1.2-1.1-1.5-1.9-.2-.6-.3-1.3-.3-2 .1-.7.2-1.3.4-2 .3-.7.6-1.3.8-1.9l6.5-16.5-11 15.2c-.8 1.1-1.7 1.8-2.7 2-.9.2-1.9 0-2.8-.7-.9-.6-1.4-1.5-1.5-2.4-.1-1 .3-2.1 1.1-3.2l15.3-21.1c1-1.6 2.2-1.9 3-1.9 1 0 2.1.5 3.2 1.3l1.7 1.2c1 .7 1.8 1.4 2.1 2.1.4.6.5 1.3.4 2-.1.7-.4 1.7-.9 3l-6 15.8 13.1-10.5c.7-.6 1.3-1 1.7-1.3.3-.2.5-.4.7-.5l.1-.1c.5-.3 1.2-.5 2.1-.2.7.2 1.6.7 2.5 1.4l1.7 1.2c1 .8 1.8 1.6 2.3 2.6.4 1.2.1 2.4-.9 3.5l-15.3 21.1c-.8 1.1-1.7 1.8-2.7 2-.3 0-.6.1-.8.1zm14.2-27.6l-15.7 21.8c-.7.9-1 1.7-.9 2.5.1.8.4 1.3 1 1.7.7.5 1.3.7 2 .5.8-.2 1.5-.7 2.1-1.6l15.3-21.1c.8-.9 1-1.8.7-2.5-.4-.8-1-1.5-1.9-2.2l-1.7-1.2c-1.1-.8-1.8-1.1-2.3-1.2-.4-.1-.8-.1-1.3.2-.2.1-.4.3-.7.5-.4.3-1 .7-1.7 1.3l-15.9 12.9 7.2-19.2c.5-1.2.8-2.2.9-2.8.1-.5 0-1-.2-1.4-.2-.4-.8-1-1.9-1.7l-1.7-1.2c-1.8-1.5-3.5-1.6-4.8.4l-15.3 21.1c-.7.8-1 1.7-.9 2.4.1.7.4 1.3 1.1 1.8.7.5 1.3.7 2 .5.8-.2 1.5-.7 2.1-1.6l15.6-21.6-9.3 23.8c-.2.6-.5 1.3-.8 2-.2.5-.3 1.1-.4 1.7 0 .5.1 1 .3 1.6.2.5.7 1 1.1 1.4.8.5 1.5.8 2.1.7.7-.1 1.3-.3 1.8-.6.6-.4 1.4-1 2.5-1.9l19.6-17zm38.1 20.3l-14.3-5.5-2.9 7.6 13.2 5c1 .4 1.6.9 1.9 1.5.3.6.3 1.3.1 2-.3.7-.7 1.2-1.4 1.4-.6.3-1.5.2-2.4-.2l-13.2-5-3.3 8.7 14.8 5.7c1 .4 1.7.9 2 1.5s.4 1.3.1 2.1c-.3.7-.8 1.2-1.4 1.5-.7.3-1.5.2-2.5-.2l-17.3-6.6c-1.4-.5-2.3-1.2-2.6-2-.4-.8-.3-1.9.2-3.3l8.8-23.1c.3-.9.8-1.6 1.2-2 .5-.5 1.1-.7 1.7-.8.7 0 1.5.1 2.4.5l16.8 6.4c1 .4 1.7.9 2 1.5s.4 1.3.1 2c-.3.7-.7 1.2-1.4 1.5-.7.2-1.6.2-2.6-.2z"/><path class="st0" d="M163.5 442.2c-.5 0-1.1-.1-1.8-.4l-17.3-6.6c-1.5-.5-2.5-1.3-2.9-2.3-.4-.8-.4-2.1.2-3.6l8.8-23.1c.4-1.2 1-1.9 1.3-2.2.7-.7 1.4-.9 2-.9 1.1 0 1.9.2 2.7.5l16.8 6.4c1.2.5 1.9 1 2.3 1.7.4.8.4 1.6.1 2.4-.4.9-.9 1.4-1.7 1.8-.7.2-1.7.3-3-.2l-13.8-5.3-2.5 6.7 12.7 4.8c1.1.4 1.8 1 2.2 1.7.3.7.4 1.5.1 2.4-.3.6-.7 1.5-1.7 1.7-.6.3-1.7.3-2.7-.2l-12.7-4.8-2.9 7.8L164 436c1.2.5 1.9 1 2.3 1.7.4.8.4 1.6.1 2.5-.3.8-.9 1.4-1.6 1.8-.5.1-.9.2-1.3.2zm-9.6-38.2c-.6.1-1 .3-1.3.7-.2.2-.7.8-1.1 1.8l-8.8 23.1c-.5 1.3-.5 2.3-.2 2.9.3.7 1.1 1.3 2.3 1.8l17.3 6.6c.9.4 1.6.4 2.1.2s.9-.7 1.1-1.2c.2-.6.2-1.1-.1-1.7-.2-.5-.8-.9-1.7-1.3l-15.3-5.9 3.7-9.6 13.7 5.2c.8.4 1.6.4 2 .2.6-.2.9-.5 1.2-1.2.1-.4.2-1-.1-1.6-.3-.5-.8-.9-1.6-1.3l-13.7-5.2 3.3-8.5 14.8 5.7c1 .4 1.8.3 2.3.2.5-.2.8-.6 1.1-1.2.3-.6.1-1.2-.1-1.6-.2-.5-.8-.9-1.7-1.3l-16.8-6.4c-.9-.3-1.6-.4-2.4-.4zm43.4 15.1l10.9 20.7 2.1-19.5c.1-1.3.5-2.2 1.1-2.8s1.4-.8 2.3-.7c1 .1 1.7.5 2.2 1.2s.7 1.7.5 2.9l-2.8 25.7c-.3 2.9-1.7 4.2-4.1 3.9-.6-.1-1.1-.2-1.6-.4s-.9-.5-1.3-1-.7-.9-1-1.4-.6-1.1-.9-1.6l-10.6-20.4-2.1 19.2c-.1 1.2-.5 2.2-1.2 2.7-.7.6-1.5.8-2.4.7-1-.1-1.7-.5-2.2-1.2s-.7-1.7-.6-2.9l2.7-25.3c.1-1.1.3-1.9.6-2.5.4-.6.9-1.1 1.6-1.5s1.5-.5 2.2-.4c.6.1 1.1.2 1.5.5.4.2.8.5 1.1.9s.6.8.9 1.4.8 1.2 1.1 1.8z"/><path class="st0" d="M210.1 451h-.7c-.7-.1-1.2-.2-1.7-.4-.6-.2-1.1-.6-1.5-1.2-.4-.5-.7-.9-1-1.5-.2-.3-.3-.5-.5-.8-.1-.3-.3-.5-.4-.8l-9.9-19-1.9 17.6c-.1 1.4-.6 2.5-1.4 3.1-.7.6-1.7.9-2.7.8-1.1-.1-2-.6-2.6-1.4-.6-.8-.8-1.9-.7-3.2l2.7-25.3c.1-1.1.3-2 .6-2.7.5-.8 1.1-1.3 1.8-1.7.7-.4 1.6-.6 2.5-.5.7.1 1.2.2 1.7.6.4.2.9.6 1.2 1 .3.4.6.8.9 1.5.1.3.3.6.5.8l.6.9 10.1 19.2 1.9-17.9c.1-1.3.5-2.4 1.2-3.1.7-.7 1.6-1 2.7-.8 1.1.1 2 .6 2.6 1.4.6.8.8 2 .6 3.3l-2.8 25.7c-.2 1.7-.7 2.9-1.6 3.6-.5.6-1.2.8-2.2.8zm-16.3-27l11.4 21.9c.1.2.3.5.4.8.1.3.3.5.4.8.3.5.6.9 1 1.3.3.4.7.7 1.1.8.4.2.9.3 1.5.4.9.1 1.7 0 2.3-.5.7-.5 1.1-1.5 1.3-3l2.8-25.7c.2-1 0-1.9-.4-2.6-.4-.6-1-.9-1.8-1-.8-.1-1.4.1-1.9.6s-.9 1.4-1 2.5l-2.3 21.1-11.7-22.2c-.1-.3-.3-.6-.5-.8-.2-.3-.4-.6-.6-1-.3-.6-.6-.9-.9-1.3-.3-.4-.7-.6-.9-.8-.4-.3-.8-.4-1.4-.5-.7-.1-1.3 0-1.9.3-.6.3-1 .8-1.4 1.3-.2.5-.4 1.3-.5 2.3l-2.7 25.3c-.1 1.1.1 2 .5 2.6.4.6 1 .9 1.8 1 .8.1 1.5-.1 2-.6.6-.4.9-1.3 1-2.4l2.4-20.6zm66.3 12.2c.3 2 0 3.8-.8 5.5s-2.1 3.2-4 4.4-4.2 2-6.9 2.4c-3.3.5-6.1.3-8.4-.6-1.6-.7-3-1.6-4.2-3-1.2-1.3-1.8-2.7-2-4-.1-.8.1-1.5.5-2.2.5-.7 1.2-1 2-1.2.7-.1 1.3 0 1.9.4s1.1 1 1.6 1.8c.6 1 1.2 1.8 1.8 2.4s1.4 1.1 2.3 1.4c1 .3 2.2.4 3.6.2 2-.3 3.5-1 4.7-2.1 1.1-1.1 1.6-2.3 1.4-3.7-.2-1.1-.6-1.9-1.4-2.5s-1.7-1-2.8-1.2-2.6-.4-4.4-.5c-2.5-.2-4.6-.5-6.3-1s-3.1-1.3-4.3-2.4c-1.1-1.1-1.8-2.6-2.1-4.5-.3-1.8 0-3.5.8-5s2.1-2.8 3.9-3.9c1.8-1 3.9-1.7 6.5-2.1 2-.3 3.8-.3 5.4 0s2.9.8 4 1.4c1.1.7 2 1.4 2.5 2.3.6.8.9 1.7 1.1 2.5.1.8-.1 1.5-.5 2.2-.5.7-1.1 1.1-2 1.3-.8.1-1.4 0-1.8-.3-.5-.3-1-.9-1.6-1.7-.8-1.1-1.7-2-2.6-2.6s-2.4-.7-4.2-.4c-1.7.3-3.1.8-4 1.7-1 .9-1.4 1.9-1.2 2.9.1.7.4 1.2.8 1.6.4.4 1 .8 1.7 1s1.4.4 2 .5c.7.1 1.8.2 3.3.4 1.9.2 3.7.4 5.3.7 1.6.3 3 .7 4.2 1.3 1.2.6 2.1 1.4 2.9 2.4.5 1.3 1 2.6 1.3 4.2z"/><path class="st0" d="M245.1 449.3c-2 0-3.7-.3-5.3-.9-1.9-.8-3.3-1.8-4.4-3.1-1.1-1.2-1.9-2.7-2.1-4.2-.1-.9.1-1.7.6-2.5.7-.9 1.5-1.2 2.3-1.4.9-.1 1.6 0 2.3.5.6.4 1.2 1 1.7 2 .6 1 1.2 1.7 1.7 2.3.6.6 1.3 1 2.1 1.3 1 .3 2.1.4 3.4.2 1.9-.3 3.3-.9 4.4-2 1-1 1.4-2.1 1.2-3.3-.2-1-.5-1.7-1.2-2.2-.8-.6-1.6-.9-2.6-1.1-.9-.2-2.4-.4-4.3-.5-2.8-.2-4.8-.5-6.4-1-1.7-.5-3.2-1.3-4.5-2.5-1.2-1.2-1.9-2.8-2.3-4.8-.3-1.9 0-3.7.9-5.3.8-1.6 2.2-2.9 4.1-4.1 1.9-1.1 4.1-1.8 6.7-2.2 2-.3 3.9-.3 5.6 0 1.5.3 2.9.8 4.1 1.5 1.1.7 2.1 1.4 2.7 2.5.6.9 1 1.9 1.1 2.6.1.9-.1 1.7-.6 2.6-.6.9-1.3 1.3-2.3 1.5-1 .1-1.7 0-2.2-.4-.5-.3-1-.9-1.7-1.8-.8-1.1-1.6-1.9-2.5-2.5-.7-.5-2.1-.6-3.8-.3-1.8.3-3 .8-3.7 1.6-.9.8-1.2 1.6-1.1 2.4.1.6.3 1 .7 1.3.4.4.9.7 1.5.9.7.2 1.4.4 1.9.5.3 0 .7.1 1.2.1.6.1 1.3.1 2.1.3 1.9.2 3.7.4 5.3.7 1.8.3 3.2.8 4.3 1.3 1.2.6 2.2 1.4 3.1 2.5l.1.1c.5 1.3 1 2.6 1.3 4.3.3 2 0 3.9-.8 5.8-.9 1.9-2.3 3.4-4.2 4.6-1.9 1.2-4.3 2.1-7.1 2.5-1.1.1-2.3.2-3.3.2zm-8.3-11.3h-.4c-.8.2-1.3.5-1.7 1-.4.6-.5 1.2-.4 1.8.2 1.3.9 2.6 1.9 3.7 1 1.2 2.3 2.1 4 2.9 2.2.9 4.9 1 8.1.6 2.6-.4 4.9-1.2 6.7-2.3 1.7-1.1 3-2.5 3.8-4.2.8-1.7 1-3.4.8-5.2-.3-1.5-.8-2.7-1.2-4-.8-1-1.7-1.7-2.7-2.2-1.1-.5-2.4-.9-4.1-1.3-1.6-.3-3.4-.5-5.3-.7-.8-.1-1.5-.2-2.1-.3-.5-.1-.9-.1-1.2-.1-.6-.1-1.4-.3-2.1-.5-.7-.2-1.4-.6-1.9-1.1-.5-.5-.8-1.1-.9-1.9-.2-.8-.1-2.1 1.4-3.3.9-.9 2.2-1.5 4.2-1.8 2-.3 3.6-.2 4.6.5.9.6 1.9 1.6 2.7 2.7.6.8 1 1.3 1.5 1.6.3.2.8.3 1.5.2.7-.2 1.2-.5 1.7-1.1.4-.6.5-1.2.4-1.8-.2-.6-.4-1.5-1-2.3-.5-.9-1.4-1.6-2.4-2.2-1.1-.6-2.4-1.1-3.8-1.3-1.5-.3-3.3-.3-5.2 0-2.5.4-4.5 1-6.3 2-1.7 1-2.9 2.3-3.7 3.7-.8 1.4-1 3-.7 4.7.3 1.8.9 3.2 2 4.2 1.2 1.1 2.5 1.8 4.1 2.3 1.5.5 3.5.8 6.2 1 2 .1 3.5.3 4.5.5 1.1.2 2.1.6 3 1.3.9.6 1.4 1.5 1.6 2.8.2 1.5-.3 2.9-1.5 4.1-1.3 1.2-2.9 1.9-5 2.2-1.4.2-2.7.1-3.8-.2-1-.3-1.8-.8-2.5-1.5-.6-.6-1.3-1.5-1.9-2.5-.5-.8-.9-1.3-1.4-1.6-.7-.3-1.1-.4-1.5-.4zm54.9-31.9l-14.2 5.9 3.1 7.5 13.1-5.4c1-.4 1.8-.5 2.4-.3s1.1.7 1.4 1.4.3 1.4 0 2-.9 1.1-1.9 1.5l-13.1 5.4 3.6 8.7 14.7-6.1c1-.4 1.8-.5 2.5-.2s1.2.7 1.5 1.5c.3.7.3 1.4 0 2.1s-1 1.2-2 1.6l-17.1 7.1c-1.4.6-2.5.7-3.3.3-.8-.3-1.5-1.2-2.1-2.5l-9.5-22.9c-.4-.9-.5-1.7-.5-2.3 0-.7.3-1.3.8-1.7s1.1-.9 2-1.3l16.6-6.9c1-.4 1.8-.5 2.5-.3s1.1.7 1.4 1.4.3 1.4 0 2c-.2.5-.9 1.1-1.9 1.5z"/><path class="st0" d="M283.5 439.8c-.5 0-.9-.1-1.3-.3-.9-.3-1.6-1.2-2.3-2.7l-9.5-22.9c-.4-.8-.5-1.6-.5-2.5 0-.8.4-1.6 1-2.1l.1-.1c.5-.4 1.1-.9 2-1.3l16.6-6.9c1.1-.4 2-.6 2.8-.3 1 .3 1.5 1.1 1.7 1.7.4.8.4 1.7 0 2.4-.2.6-1.1 1.3-2.2 1.7l-13.7 5.7 2.7 6.6 12.6-5.2c1.1-.5 2-.6 2.7-.3.7.2 1.3.8 1.7 1.7.4.8.4 1.7 0 2.4s-1.1 1.3-2.2 1.7l-12.6 5.2 3.2 7.8 14.2-5.9c1.2-.5 2.1-.5 2.9-.2.9.4 1.5.9 1.8 1.8.3.8.3 1.6 0 2.5-.3.8-1.1 1.4-2.3 1.9l-17.1 7.1c-.8.3-1.6.5-2.3.5zm8-38.2c-.5 0-1 .1-1.6.4l-16.6 6.9c-.8.3-1.3.8-1.8 1.2l-.1.1c-.4.3-.6.8-.6 1.3 0 .7.2 1.4.5 2.1l9.5 22.9c.6 1.2 1.2 2 1.8 2.2.7.3 1.7.2 2.9-.3l17.1-7.1c.9-.4 1.5-.8 1.7-1.3.2-.6.2-1.1 0-1.7-.2-.6-.6-1-1.2-1.2-.5-.2-1.2-.2-2.1.2l-15.2 6.3-4-9.6 13.6-5.6c.9-.3 1.4-.8 1.6-1.3.2-.5.2-1 0-1.6-.2-.6-.6-1-1.1-1.1-.5-.2-1.2-.1-2.1.3l-13.6 5.6-3.5-8.4 14.7-6.1c.9-.4 1.5-.9 1.6-1.2.3-.5.2-1.1 0-1.6-.3-.7-.6-1-1.1-1.1 0-.3-.2-.3-.4-.3zm21.9-10.6l22.1 7.6-11.8-15.6c-.8-1-1.1-1.9-1.1-2.8s.5-1.6 1.2-2.1c.8-.6 1.6-.8 2.4-.6s1.6.8 2.4 1.8l15.6 20.7c1.7 2.3 1.6 4.2-.3 5.7-.5.4-1 .6-1.5.8s-1 .2-1.6.2-1.1-.2-1.7-.3l-1.8-.6-21.7-7.8 11.6 15.4c.8 1 1.1 1.9 1 2.8s-.5 1.6-1.3 2.2-1.6.8-2.4.6-1.7-.8-2.4-1.7L306.9 397c-.6-.9-1.1-1.6-1.2-2.2-.2-.7-.1-1.4.2-2.2.3-.7.7-1.4 1.4-1.8.5-.4 1-.6 1.4-.7.5-.1.9-.1 1.4-.1.5.1 1 .2 1.6.4.4.2 1 .4 1.7.6z"/><path class="st0" d="M325.1 419.6c-.2 0-.5 0-.7-.1-1-.2-1.9-.9-2.7-1.9L306.3 397c-.6-.8-1-1.5-1.1-2.2-.2-.7-.1-1.5.2-2.5.3-.7.8-1.6 1.6-2.1.4-.3.9-.6 1.5-.8.6-.1 1-.1 1.5-.1.6.1 1.1.2 1.8.4.4.2.9.4 1.7.6l20.5 7.1-10.8-14.3c-.8-1-1.2-2-1.2-3.1 0-1 .5-1.8 1.4-2.5.9-.7 1.9-.9 2.8-.7.9.2 1.8.9 2.7 2l15.6 20.7c2.3 3.2 1.1 5.2-.4 6.4-.6.4-1.1.7-1.6.9-.6.2-1.2.2-1.8.2-.4 0-.8-.1-1.2-.2-.2 0-.4-.1-.6-.1l-1.9-.6-20-7.1 10.6 14.1c.9 1.1 1.2 2.1 1.1 3.2-.1 1.1-.6 1.9-1.5 2.5-.7.5-1.4.8-2.1.8zM310 390.5c-.4 0-.8 0-1.2.1-.4.1-.8.3-1.2.6-.7.4-1 1.1-1.3 1.6-.3.7-.3 1.3-.2 1.9.1.5.5 1.1 1 1.8l.2.2 15.2 20.3c.6.8 1.4 1.3 2.1 1.5.7.2 1.3 0 2-.5s1-1.1 1.1-1.9c.1-.8-.2-1.6-.9-2.4L314.2 397l25.1 9c.2 0 .4.1.6.1.3.1.6.2 1 .2.6 0 1 0 1.4-.2.5-.2.9-.4 1.4-.7 1.7-1.3 1.8-2.9.2-5l-15.6-20.7c-.7-.9-1.4-1.4-2.1-1.6-.7-.2-1.3 0-2 .5s-1 1-1 1.7c0 .9.3 1.6 1 2.5l12.8 16.9-23.6-8.1c-.8-.2-1.4-.4-1.8-.6-.6-.3-1.1-.4-1.6-.5z"/><path class="st0" d="M221.9 467.2c-58.2 0-112.9-22.7-154-63.8s-63.8-95.9-63.8-154c0-58.2 22.7-112.9 63.8-154s95.9-63.8 154-63.8c58.2 0 112.9 22.7 154 63.8s63.8 95.9 63.8 154-22.7 112.9-63.8 154-95.8 63.8-154 63.8zm0-426.7c-115.2 0-208.8 93.7-208.8 208.8 0 115.2 93.7 208.8 208.8 208.8s208.8-93.7 208.8-208.8c.1-115.1-93.6-208.8-208.8-208.8z"/><path fill="none" d="M0 0h444.6v472H0z"/></svg>