<svg width="113" height="26" viewBox="0 0 113 26" fill="none" xmlns="http://www.w3.org/2000/svg">
<path d="M0 3.18304H5.21447L9.93733 16.423C10.444 17.8599 10.9077 19.4065 11.4401 21.1871H11.4809L11.4937 3.18304H14.8384V25.5367H9.61961L4.89675 12.2968C4.39012 10.8598 3.92642 9.31327 3.41978 7.53263H3.37899L3.35109 25.5367H0V3.18304Z" fill="#FC4832"/>
<path d="M34.2422 13.7649C34.2422 6.12456 37.09 2.00635 42.2382 2.00635C47.3865 2.00635 50.222 6.12456 50.222 13.7649C50.222 21.4052 47.3762 25.5365 42.2505 25.5365C37.1249 25.5365 34.2422 21.4183 34.2422 13.7649ZM46.226 13.7649C46.226 7.9411 44.8134 5.39142 42.2403 5.39142C39.6672 5.39142 38.2546 7.93892 38.2546 13.7649C38.2546 19.5909 39.6652 22.1406 42.2403 22.1406C44.8154 22.1406 46.226 19.5865 46.226 13.7649Z" fill="#FC4832"/>
<path d="M65.5085 25.5324L61.8518 16.6889H58.4652V25.5324H54.7881V3.18304H62.4023C67.3349 3.18304 69.0576 5.68921 69.0576 9.75449C69.0576 12.834 67.9687 15.1469 65.4313 16.1455L69.6265 25.5367L65.5085 25.5324ZM58.4652 13.5964H62.1219C64.4785 13.5964 65.346 12.2821 65.346 9.81891C65.346 7.73796 64.5821 6.43655 62.2113 6.43655H58.4652V13.5964Z" fill="#FC4832"/>
<path d="M71.9092 3.18304H78.3195C84.2116 3.18304 86.7476 6.63446 86.7476 14.3685C86.7476 22.1025 84.2116 25.5367 78.3195 25.5367H71.9092V3.18304ZM78.2154 22.2249C80.8045 22.2249 82.8202 21.1854 82.8202 14.3685C82.8202 7.55154 80.8045 6.497 78.2154 6.497H75.6795V22.2249H78.2154Z" fill="#FC4832"/>
<path d="M99.8384 20.3633H93.0622L91.7724 25.5174H87.8887L93.702 3.18304H99.1986L105.01 25.5367H101.138L99.8384 20.3633ZM99.0207 17.0368L98.3401 14.3502C97.6614 11.6271 97.1668 9.49249 96.5004 6.4387H96.4207C95.7441 9.49249 95.2617 11.6271 94.581 14.3502L93.9044 17.0475L99.0207 17.0368Z" fill="#FC4832"/>
<path d="M19.1046 3.18304V6.31171H28.0906V18.7421C28.0906 21.2703 27.0192 22.5555 24.5294 22.5555C22.0396 22.5555 20.9551 21.3715 20.942 18.4577H17.1211C17.1211 18.5104 17.1211 18.5672 17.1211 18.6199C17.1211 22.9052 19.3883 25.5367 24.5403 25.5367C29.6923 25.5367 31.9595 22.9453 31.9595 18.445V3.18304H19.1046Z" fill="#FC4832"/>
<path d="M109.005 0.830139L111.002 4.94792L113 9.06569H109.005H105.01L107.007 4.94792L109.005 0.830139Z" fill="#03A48D"/>
</svg>
