<?xml version="1.0" encoding="utf-8"?>
<!-- Generator: Adobe Illustrator 26.5.0, SVG Export Plug-In . SVG Version: 6.00 Build 0)  -->
<svg version="1.1" id="Layer_1" xmlns="http://www.w3.org/2000/svg" xmlns:xlink="http://www.w3.org/1999/xlink" x="0px" y="0px"
	 viewBox="0 0 2721.8 280.2" style="enable-background:new 0 0 2721.8 280.2;" xml:space="preserve">
<style type="text/css">
	.st0{fill:#F67F9C;}
</style>
<path d="M1198.4,265.1h-124.7V63.7h33.7v167.7h91V265.1z M2564.9,265.1h-125.4V63.7h125.1v33.7h-91.7v50.2h50.5v33.7h-50.5v50.5
	h91.7L2564.9,265.1L2564.9,265.1z M460.7,147.6l-34.9,33.7H360v83.9h-33.7V63.7H427l33.7,33.7V147.6z M427.1,133.9v-22.8l-14-14h-53
	v50.2h53.6L427.1,133.9z M615.5,231.4l-33.4,33.7h-67.3l-33.4-33.7v-16.8h33.7v2.8l13.7,13.7h39.3l14-14v-22.4l-14-13.4h-53.3
	l-33.4-33.7V97.4l33.4-33.7h67l33.7,33.7v16.8h-33.4v-2.8l-14-14h-39.3l-14,14v22.4l14,14h53.3l33.7,33.7v49.9H615.5z M746.8,63.7
	l-47.1,100.7v100.7H666V164.4L619,63.7h37.1l26.8,57.4l26.8-57.4L746.8,63.7L746.8,63.7z M899.2,265.1h-38.3l-48.3-86.4l-14,18.7
	v67.7h-33.7V63.7h33.7v77.9l58.6-77.9h42.1l-64.5,84.8L899.2,265.1z M1042.6,231.4l-34.9,33.7h-65.8l-33.7-33.7v-134l33.7-33.7h67.3
	l33.7,33.7L1042.6,231.4L1042.6,231.4z M1009.2,217.7V111.1l-14-14h-39.3l-14,14v106.3l14,14h39.9L1009.2,217.7L1009.2,217.7z
	 M1346,231.4l-34.9,33.7h-65.8l-33.7-33.7v-134l33.7-33.7h67l33.7,33.7L1346,231.4L1346,231.4z M1312.3,217.7V111.1l-14-14H1259
	l-14,14v106.3l14,14h39.9L1312.3,217.7z M1513.1,231.4l-34.9,33.7h-65.5l-33.7-33.7v-134l33.7-33.7h67l33.7,33.7v16.8h-33.7v-2.8
	l-14-13.7h-39.3l-13.7,14V218l14,14h39.9l13.4-13.7v-19.6h-16.8v-34.3h50.2L1513.1,231.4L1513.1,231.4z M1579.2,265.1h-33.7V63.7
	h33.7V265.1z M1739.7,97.4h-90.8v50.2h50.2v33.7h-50.2v83.9h-33.7V63.7h124.5V97.4z M1864.4,265.1h-34.6l-8.4-33.7h-47.7l-8.4,33.7
	h-34.6l48.9-201.4h36.2L1864.4,265.1z M1813.3,198.1l-15.6-62l-15.6,62H1813.3z M2024.4,231.4l-33.7,33.7H1890V63.7h100.7l33.7,33.7
	v50.2l-16.8,16.8l16.8,16.8L2024.4,231.4L2024.4,231.4z M1991.1,133.9v-22.4l-14-14h-53.3v50.2h53.3L1991.1,133.9z M1991.1,217.7
	v-22.4l-14-14h-53.3v50.2h53.3L1991.1,217.7z M2190.3,147.6l-34.9,33.7l34.9,83.9h-36.5l-35.5-83.9h-28.7v83.9H2056V63.7h100.7
	l33.4,33.7L2190.3,147.6L2190.3,147.6z M2156.7,133.9v-22.8l-14-14h-53.3v50.2h53.9L2156.7,133.9L2156.7,133.9z M2255.4,265.1h-33.7
	V63.7h33.7V265.1z M2423.5,265.1h-38.4l-48.3-86.4l-14,18.7v67.7h-33.7V63.7h33.7v77.9l58.6-77.9h42.1l-64.5,84.8L2423.5,265.1
	L2423.5,265.1z M2721.8,265.1h-33.7L2621,137v128.1h-33.7V63.7l33.4,0.3l67.3,128.8V63.7h33.7v201.4H2721.8z"/>
<path class="st0" d="M152.9,167.6c-3,4.5-8.1,7.2-13.7,7.2c-1.2,0-2.4-0.1-3.7-0.4c-1.9-0.4-3.1-2.3-2.7-4.2
	c0.4-1.9,2.3-3.1,4.2-2.7c4.6,1,8.8-1,10.6-4.8c-5.3-1.6-10.4-4.6-14.3-9.2c-1.2-1.5-1.1-3.7,0.4-4.9s3.7-1.1,4.9,0.4
	c4.9,5.8,12.9,8.3,19.6,8.2c0.6,0,1.3-0.1,1.9-0.1c0.7-0.1,1.3-0.1,1.9-0.3c0.3-0.1,0.6-0.1,0.9,0c3.2-0.5,6.3-1.3,9.2-2.5
	c-1.9-1-3.8-2.2-5.5-3.6c-1.5-1.2-1.8-3.4-0.6-4.9s3.4-1.8,4.9-0.6c5.8,4.5,12.7,6.7,19.5,6.7c9.4,0,18.7-4.1,24.9-12.1
	c5.9-7.6,8.7-16.7,7.5-25.2c-0.9-6.5-4-11.9-8.9-15.6c-1.6-1.2-1.9-3.3-0.7-4.9s3.4-1.9,4.9-0.7c2.3,1.7,4.3,3.8,6,6
	c0.9-3.6,1.4-7.3,1.4-11.2c0-15-7.5-28.2-18.9-36.1c-3.8-11.9-12.5-21.5-23.7-26.6c-9.1-3.5-19.2-4-27.4,0.5c-1.7,1-3.8,0.4-4.8-1.3
	c-0.9-1.7-0.4-3.8,1.3-4.8c2.6-1.5,5.4-2.6,8.3-3.2c-2.1-2.2-4.5-4-7.1-5.6c-0.4-0.1-0.8-0.2-1.1-0.5c-0.7-0.5-1.5-0.9-2.3-1.3
	c-4.6-2.1-9.7-3.3-15-3.3c-1,0-1.9,0-2.8,0.1c-8.3,1.1-16.1,5.7-21,13.2c-0.7,1-1.8,1.6-2.9,1.6c-0.7,0-1.3-0.2-1.9-0.6
	c-1.6-1.1-2.1-3.2-1-4.9c2.5-3.8,5.5-7,9-9.5C108.5,2.3,101.6,0,94.1,0c-7.2,0-13.9,2.1-19.5,5.8c-4.4-1.9-9.2-3-14.2-3
	c-12.2,0-23,6.1-29.5,15.5c-0.1,0.1-0.3,0.2-0.4,0.3C13.8,19.2,0.6,32.9,0.6,49.7c0,11.4,6.2,21.4,15.4,26.9
	c6.9,3,14.4,2.7,20.1-0.9c1.6-1,3.8-0.6,4.8,1.1c1,1.6,0.6,3.8-1.1,4.8c-3,1.9-6.3,3.1-9.8,3.7c7.1,5.5,16,8.8,25.6,8.8
	c3.8,0,7.4-0.5,10.9-1.4c9.9-3.7,15.5-12.4,17.4-20c2.1-8,0.6-15.4-4-19.3c-1.5-1.3-1.6-3.5-0.4-4.9c1.3-1.5,3.5-1.6,4.9-0.4
	c6.6,5.7,9,15.8,6.2,26.4c-1.6,6-5,12.6-10.5,17.8c4.2,7.8,10.6,14.3,18.5,18.4c10.1,3.8,23,3,30.3-2.8c1.5-1.2,3.7-0.9,4.9,0.6
	s0.9,3.7-0.6,4.9c-4.5,3.5-10.3,5.6-16.5,6.4c0.4,7.4,2.8,14.2,6.7,20c-5.7,5.2-9.3,12.6-9.3,21c0,9.4,4.6,17.7,11.6,22.8
	c-3.2,2.6-5.3,6.6-5.3,11.1c0,7.9,6.4,14.3,14.3,14.3s14.3-6.4,14.3-14.3V194c5.9-1.9,10.2-7.4,10.2-13.9
	C159.5,174.7,156.9,170.3,152.9,167.6L152.9,167.6z M166.4,41.2c5.8-0.4,12.1,3.3,15.7,9.4c3.9,6.7,3.6,14.6-0.8,21.3
	c-0.7,1-1.8,1.6-2.9,1.6c-0.7,0-1.3-0.2-1.9-0.6c-1.6-1.1-2.1-3.3-1-4.9c4-6.1,2.1-11.3,0.6-13.9c-2.2-3.7-6-6.2-9.1-6
	c-1.9,0.1-3.6-1.3-3.8-3.2S164.4,41.3,166.4,41.2z M159,115.2c0.8-1.8,2.9-2.5,4.7-1.7c6.6,3.1,11.5,0.4,13.8-1.4
	c3.3-2.7,5.3-6.8,4.6-9.9c-0.4-1.9,0.8-3.8,2.7-4.2c1.9-0.4,3.8,0.8,4.2,2.7c1.3,5.7-1.6,12.5-7,16.9c-3.6,2.9-7.9,4.3-12.2,4.3
	c-3,0-6-0.7-8.9-2.1C159,119,158.2,116.9,159,115.2L159,115.2z M67.1,25.5c-8,0.1-14.4,4.1-17.7,11.1c-2.8,5.9-2.6,12.8,0.5,16.6
	c1.2,1.5,1,3.7-0.5,4.9c-0.6,0.5-1.4,0.8-2.2,0.8c-1,0-2.1-0.5-2.7-1.3c-4.8-6-5.3-15.6-1.3-24c4.5-9.4,13.2-14.9,24-15.1
	c1.9,0,3.5,1.5,3.6,3.5C70.6,23.9,69.1,25.5,67.1,25.5z M108.7,81c-0.7,1.1-1.8,1.7-3,1.7c-0.6,0-1.2-0.2-1.8-0.5
	c-1.7-1-2.2-3.1-1.3-4.8c4.4-7.5,12.7-13.2,22.7-15.7c9.7-2.4,19.6-1.4,26.6,2.7c1.7,1,2.2,3.1,1.3,4.8c-1,1.7-3.1,2.2-4.8,1.3
	C137.5,64.1,116.3,68.1,108.7,81z"/>
<g>
	<path d="M155.9,247.6c0-2.7-6.4-7.9-15.1-12.1c-9.4-4.6-18-6.3-19.2-3.9c-1.9,2.3-3.7,5.1-5.4,8.1c-1.1,1.6-5.7,11.8-5.7,11.8
		c-1.7,3.9-3.6,3.6-6,2.5c-28.1-14-46.9-23.6-60.8-24.2c-14.4-0.6-23,5.8-37.5,12.8c-1.9,0.2-3,0-4.7,2.2c-2.3,3-2.3,5.1,1,5.3
		s4-1.4,4.7-2.6c0,0,23-10.6,35.6-8.6c10,1.6,19.2,9,28.1,14.3c19.1,11.1,27.7,15.8,42.5,22.6c5.4,2.5,11.4,4,16.4,4.5
		c17.6,1.5,23.4-23.7,25.8-30.3C156,248.9,156,247.8,155.9,247.6L155.9,247.6z M150.4,245.5c-0.9,1.3-6.9-0.2-13.4-3.3
		c-6.4-3.1-10.9-6.6-10-7.9c0.9-1.3,6.9,0.2,13.4,3.3S151.3,244.3,150.4,245.5z"/>
</g>
</svg>
