<svg id="Layer_1" xmlns="http://www.w3.org/2000/svg" viewBox="0 0 2721.8 280.2"><style>.st0{display:none}</style><g id="Layer_1_1_"><path d="M1198.4 265.1h-124.7V63.7h33.7v167.7h91v33.7zM2564.9 265.1h-125.4V63.7h125.1v33.7h-91.7v50.2h50.5v33.7h-50.5v50.5h91.7l.3 33.3zM460.7 147.6l-34.9 33.7H360v83.9h-33.7V63.7H427l33.7 33.7v50.2zm-33.6-13.7v-22.8l-14-14h-53v50.2h53.6l13.4-13.4zM615.5 231.4l-33.4 33.7h-67.3l-33.4-33.7v-16.8h33.7v2.8l13.7 13.7h39.3l14-14v-22.4l-14-13.4h-53.3l-33.4-33.7V97.4l33.4-33.7h67l33.7 33.7v16.8h-33.4v-2.8l-14-14h-39.3l-14 14v22.4l14 14h53.3l33.7 33.7v49.9h-.3zM746.8 63.7l-47.1 100.7v100.7H666V164.4L619 63.7h37.1l26.8 57.4 26.8-57.4h37.1zM899.2 265.1h-38.3l-48.3-86.4-14 18.7v67.7h-33.7V63.7h33.7v77.9l58.6-77.9h42.1l-64.5 84.8 64.4 116.6zM1042.6 231.4l-34.9 33.7h-65.8l-33.7-33.7v-134l33.7-33.7h67.3l33.7 33.7-.3 134zm-33.4-13.7V111.1l-14-14h-39.3l-14 14v106.3l14 14h39.9l13.4-13.7zM1346 231.4l-34.9 33.7h-65.8l-33.7-33.7v-134l33.7-33.7h67l33.7 33.7v134zm-33.7-13.7V111.1l-14-14H1259l-14 14v106.3l14 14h39.9l13.4-13.7zM1513.1 231.4l-34.9 33.7h-65.5l-33.7-33.7v-134l33.7-33.7h67l33.7 33.7v16.8h-33.7v-2.8l-14-13.7h-39.3l-13.7 14V218l14 14h39.9l13.4-13.7v-19.6h-16.8v-34.3h50.2l-.3 67zM1579.2 265.1h-33.7V63.7h33.7v201.4zM1739.7 97.4h-90.8v50.2h50.2v33.7h-50.2v83.9h-33.7V63.7h124.5v33.7zM1864.4 265.1h-34.6l-8.4-33.7h-47.7l-8.4 33.7h-34.6l48.9-201.4h36.2l48.6 201.4zm-51.1-67l-15.6-62-15.6 62h31.2zM2024.4 231.4l-33.7 33.7H1890V63.7h100.7l33.7 33.7v50.2l-16.8 16.8 16.8 16.8v50.2zm-33.3-97.5v-22.4l-14-14h-53.3v50.2h53.3l14-13.8zm0 83.8v-22.4l-14-14h-53.3v50.2h53.3l14-13.8zM2190.3 147.6l-34.9 33.7 34.9 83.9h-36.5l-35.5-83.9h-28.7v83.9H2056V63.7h100.7l33.4 33.7.2 50.2zm-33.6-13.7v-22.8l-14-14h-53.3v50.2h53.9l13.4-13.4zM2255.4 265.1h-33.7V63.7h33.7v201.4zM2423.5 265.1h-38.4l-48.3-86.4-14 18.7v67.7h-33.7V63.7h33.7v77.9l58.6-77.9h42.1l-64.5 84.8 64.5 116.6zM2721.8 265.1h-33.7L2621 137v128.1h-33.7V63.7l33.4.3 67.3 128.8V63.7h33.7v201.4h.1z"/></g><g id="Layer_4"><path d="M155.9 247.6c0-2.7-6.4-7.9-15.1-12.1-9.4-4.6-18-6.3-19.2-3.9-1.9 2.3-3.7 5.1-5.4 8.1-1.1 1.6-5.7 11.8-5.7 11.8-1.7 3.9-3.6 3.6-6 2.5-28.1-14-46.9-23.6-60.8-24.2-14.4-.6-23 5.8-37.5 12.8-1.9.2-3 0-4.7 2.2-2.3 3-2.3 5.1 1 5.3 3.3.2 4-1.4 4.7-2.6 0 0 23-10.6 35.6-8.6 10 1.6 19.2 9 28.1 14.3 19.1 11.1 27.7 15.8 42.5 22.6 5.4 2.5 11.4 4 16.4 4.5 17.6 1.5 23.4-23.7 25.8-30.3.4-1.1.4-2.2.3-2.4zm-5.5-2.1c-.9 1.3-6.9-.2-13.4-3.3-6.4-3.1-10.9-6.6-10-7.9.9-1.3 6.9.2 13.4 3.3 6.5 3.1 10.9 6.7 10 7.9zM152.9 167.6c-3 4.5-8.1 7.2-13.7 7.2-1.2 0-2.4-.1-3.7-.4-1.9-.4-3.1-2.3-2.7-4.2.4-1.9 2.3-3.1 4.2-2.7 4.6 1 8.8-1 10.6-4.8-5.3-1.6-10.4-4.6-14.3-9.2-1.2-1.5-1.1-3.7.4-4.9 1.5-1.2 3.7-1.1 4.9.4 4.9 5.8 12.9 8.3 19.6 8.2.6 0 1.3-.1 1.9-.1.7-.1 1.3-.1 1.9-.3.3-.1.6-.1.9 0 3.2-.5 6.3-1.3 9.2-2.5-1.9-1-3.8-2.2-5.5-3.6-1.5-1.2-1.8-3.4-.6-4.9 1.2-1.5 3.4-1.8 4.9-.6 5.8 4.5 12.7 6.7 19.5 6.7 9.4 0 18.7-4.1 24.9-12.1 5.9-7.6 8.7-16.7 7.5-25.2-.9-6.5-4-11.9-8.9-15.6-1.6-1.2-1.9-3.3-.7-4.9 1.2-1.6 3.4-1.9 4.9-.7 2.3 1.7 4.3 3.8 6 6 .9-3.6 1.4-7.3 1.4-11.2 0-15-7.5-28.2-18.9-36.1-3.8-11.9-12.5-21.5-23.7-26.6-9.1-3.5-19.2-4-27.4.5-1.7 1-3.8.4-4.8-1.3-.9-1.7-.4-3.8 1.3-4.8 2.6-1.5 5.4-2.6 8.3-3.2-2.1-2.2-4.5-4-7.1-5.6-.4-.1-.8-.2-1.1-.5-.7-.5-1.5-.9-2.3-1.3-4.6-2.1-9.7-3.3-15-3.3-1 0-1.9 0-2.8.1-8.3 1.1-16.1 5.7-21 13.2-.7 1-1.8 1.6-2.9 1.6-.7 0-1.3-.2-1.9-.6-1.6-1.1-2.1-3.2-1-4.9 2.5-3.8 5.5-7 9-9.5C108.5 2.3 101.6 0 94.1 0c-7.2 0-13.9 2.1-19.5 5.8-4.4-1.9-9.2-3-14.2-3-12.2 0-23 6.1-29.5 15.5-.1.1-.3.2-.4.3C13.8 19.2.6 32.9.6 49.7.6 61.1 6.8 71.1 16 76.6c6.9 3 14.4 2.7 20.1-.9 1.6-1 3.8-.6 4.8 1.1 1 1.6.6 3.8-1.1 4.8-3 1.9-6.3 3.1-9.8 3.7 7.1 5.5 16 8.8 25.6 8.8 3.8 0 7.4-.5 10.9-1.4 9.9-3.7 15.5-12.4 17.4-20 2.1-8 .6-15.4-4-19.3-1.5-1.3-1.6-3.5-.4-4.9 1.3-1.5 3.5-1.6 4.9-.4 6.6 5.7 9 15.8 6.2 26.4-1.6 6-5 12.6-10.5 17.8 4.2 7.8 10.6 14.3 18.5 18.4 10.1 3.8 23 3 30.3-2.8 1.5-1.2 3.7-.9 4.9.6 1.2 1.5.9 3.7-.6 4.9-4.5 3.5-10.3 5.6-16.5 6.4.4 7.4 2.8 14.2 6.7 20-5.7 5.2-9.3 12.6-9.3 21 0 9.4 4.6 17.7 11.6 22.8-3.2 2.6-5.3 6.6-5.3 11.1 0 7.9 6.4 14.3 14.3 14.3s14.3-6.4 14.3-14.3v-.7c5.9-1.9 10.2-7.4 10.2-13.9.3-5.4-2.3-9.8-6.3-12.5zm13.5-126.4c5.8-.4 12.1 3.3 15.7 9.4 3.9 6.7 3.6 14.6-.8 21.3-.7 1-1.8 1.6-2.9 1.6-.7 0-1.3-.2-1.9-.6-1.6-1.1-2.1-3.3-1-4.9 4-6.1 2.1-11.3.6-13.9-2.2-3.7-6-6.2-9.1-6-1.9.1-3.6-1.3-3.8-3.2-.2-1.9 1.2-3.6 3.2-3.7zm-7.4 74c.8-1.8 2.9-2.5 4.7-1.7 6.6 3.1 11.5.4 13.8-1.4 3.3-2.7 5.3-6.8 4.6-9.9-.4-1.9.8-3.8 2.7-4.2 1.9-.4 3.8.8 4.2 2.7 1.3 5.7-1.6 12.5-7 16.9-3.6 2.9-7.9 4.3-12.2 4.3-3 0-6-.7-8.9-2.1-1.9-.8-2.7-2.9-1.9-4.6zM67.1 25.5c-8 .1-14.4 4.1-17.7 11.1-2.8 5.9-2.6 12.8.5 16.6 1.2 1.5 1 3.7-.5 4.9-.6.5-1.4.8-2.2.8-1 0-2.1-.5-2.7-1.3-4.8-6-5.3-15.6-1.3-24 4.5-9.4 13.2-14.9 24-15.1 1.9 0 3.5 1.5 3.6 3.5-.2 1.9-1.7 3.5-3.7 3.5zM108.7 81c-.7 1.1-1.8 1.7-3 1.7-.6 0-1.2-.2-1.8-.5-1.7-1-2.2-3.1-1.3-4.8 4.4-7.5 12.7-13.2 22.7-15.7 9.7-2.4 19.6-1.4 26.6 2.7 1.7 1 2.2 3.1 1.3 4.8-1 1.7-3.1 2.2-4.8 1.3-10.9-6.4-32.1-2.4-39.7 10.5z"/></g></svg>