<svg version="1.1" id="Lager_1" xmlns="http://www.w3.org/2000/svg" x="0" y="0" viewBox="0 0 237.9 249.3" xml:space="preserve"><style type="text/css">.st0{fill:#e74124}</style><path class="st0" d="M18.6 238.7c-1.1-.8-2.3-1.4-5.6-2.2-2.1-.5-4.4-1-4.4-2.8 0-1.6 1.8-2.4 3.5-2.4 2.6 0 3.3 1.4 3.6 2.1.5 1.1.9 1.8 2 1.8 1.2 0 1.9-1.1 1.9-1.9 0-1.1-1.2-4.9-7.2-4.9-4.8 0-7.6 2.3-7.6 5.6 0 2 1 3.3 2 4.1.9.7 1.9 1.2 4.8 1.9 2.5.6 4.8 1.1 4.8 3.3 0 2.1-2.2 3-4.1 3-2.8 0-3.7-1.7-4-2.5-.6-1.4-.9-2.2-2.1-2.2-1.2 0-1.9 1-1.9 1.8 0 1.2 1.1 5.9 8 5.9 5.2 0 8-2.9 8-6.4.1-1-.2-3-1.7-4.2zm20.8-9.9h-1.2c-2.3 0-2.4.5-3 2.7l-2.9 11-2.9-11c-.6-2.3-.7-2.7-3-2.7h-1.2c-1.6 0-2.6.4-2.6 2.7v14.6c0 1.4 0 2.1.5 2.6.4.4.9.6 1.4.6.6 0 1.1-.3 1.4-.6.5-.5.5-1.2.5-2.6V233l3.2 12.8c.4 1.5.6 2.3 1.1 2.8.5.5 1.1.6 1.7.6.6 0 1.2-.2 1.5-.5.5-.5.8-1.2 1.2-2.8l3.2-12.8v13.1c0 1.4 0 2.1.5 2.6.4.4.9.6 1.4.6.7 0 1.1-.3 1.4-.6.5-.5.5-1.2.5-2.6v-14.6c0-.9 0-1.5-.6-2.1-.6-.7-1.3-.7-2.1-.7zm18.8 9.9c-1.1-.8-2.3-1.4-5.6-2.2-2.1-.5-4.4-1-4.4-2.8 0-1.6 1.8-2.4 3.5-2.4 2.6 0 3.3 1.4 3.6 2.1.5 1.1.9 1.8 2 1.8 1.2 0 1.9-1.1 1.9-1.9 0-1.1-1.2-4.9-7.2-4.9-4.8 0-7.6 2.3-7.6 5.6 0 2 1 3.3 2 4.1.9.7 1.9 1.2 4.8 1.9 2.5.6 4.8 1.1 4.8 3.3 0 2.1-2.2 3-4.1 3-2.8 0-3.7-1.7-4-2.5-.6-1.4-.9-2.2-2.1-2.2-1.2 0-1.9 1-1.9 1.8 0 1.2 1.1 5.9 8 5.9 5.2 0 8-2.9 8-6.4.2-1-.1-3-1.7-4.2zm19.1 7.5c-.4-.5-1-.5-2.3-.5h-7.6v-14c0-1.4.1-2.3-.5-2.8-.4-.4-1-.6-1.5-.6-.7 0-1.2.3-1.5.6-.5.5-.5 1.3-.5 2.7v13.7c0 1.7 0 2.2.6 2.8.6.6 1 .6 2.8.6H75c1.2 0 1.8 0 2.3-.5.3-.3.5-.7.5-1.2.1-.2-.2-.5-.5-.8zm24.5-17.7c-1.4 0-1.7 1-2.3 2.6l-4.6 13.6-4.6-13.5c-.6-1.7-.9-2.7-2.3-2.7-1.2 0-2 1-2 1.9 0 .6.2 1 .6 2.1l4.8 13.1c.7 1.9 1 2.8 1.7 3.2.5.4 1.2.6 1.8.6.6 0 1.2-.2 1.7-.6.7-.5 1-1.3 1.7-3.2l4.8-13.2c.4-1.1.6-1.5.6-2.1 0-.9-.8-1.8-1.9-1.8zm35.6 3.8c-.2-.5-.8-2-.9-2.3-.7-1.2-1.7-1.5-2.6-1.5-.7 0-1.3.3-1.8.6-.7.5-1 1.3-1.7 3.2l-5.2 13.1c-.4 1-.6 1.5-.6 2.1 0 .8.8 1.8 1.9 1.8 1.3 0 1.6-.7 2.3-2.6l1-2.5h8.2l1 2.5c.7 1.9 1 2.6 2.3 2.6 1.3 0 2-1.1 2-1.9 0-.6-.2-1.2-.6-2.2l-5.3-12.9zm-6.6 8.7l3-8.3 3.1 8.3h-6.1zm63.4-8.7c-.2-.5-.8-2-.9-2.3-.7-1.2-1.7-1.5-2.6-1.5-.7 0-1.3.3-1.8.6-.7.5-1 1.3-1.7 3.2l-5.2 13.1c-.4 1-.6 1.5-.6 2.1 0 .8.8 1.8 1.9 1.8 1.3 0 1.6-.7 2.3-2.6l1-2.5h8.2l1 2.5c.7 1.9 1 2.6 2.3 2.6 1.3 0 2-1.1 2-1.9 0-.6-.2-1.2-.6-2.2l-5.3-12.9zm-6.5 8.7l3-8.3 3.1 8.3h-6.1zm-70.6-1.1c1.3-.3 5.1-1.1 5.1-5.5 0-2.2-1.1-3.8-2.6-4.7-1.4-.8-3.1-.9-4.6-.9h-5.7c-1.6 0-2.3 0-2.8.6-.6.6-.6 1-.6 2.8v13.7c0 1.6 0 3.4 2 3.4 2.2 0 2.1-2 2.1-3.4V232h3.8c1.7 0 2.5.1 3.1.4.7.4 1.3 1.1 1.3 2.3 0 2.8-3 2.8-4.6 2.8h-1.1c-.8 0-1.5.7-1.5 1.5s.6 1.4 1.4 1.4h.1c.6 0 1.7.3 3.7 3.7l1.7 2.7c1 1.6 1.5 2.6 2.8 2.6 1.3 0 2-.9 2-1.6 0-.8-1.1-2.7-1.7-3.7-1.1-1.8-2.3-3.3-3.9-4.2zm96.4 0c1.3-.3 5.1-1.1 5.1-5.5 0-2.2-1.1-3.8-2.6-4.7-1.4-.8-3.1-.9-4.6-.9h-5.7c-1.6 0-2.3 0-2.8.6-.6.6-.6 1-.6 2.8v13.7c0 1.6 0 3.4 2 3.4 2.2 0 2.1-2 2.1-3.4V232h3.8c1.7 0 2.5.1 3.1.4.7.4 1.3 1.1 1.3 2.3 0 2.8-3 2.8-4.6 2.8h-1.1c-.8 0-1.5.7-1.5 1.5s.6 1.4 1.4 1.4h.1c.6 0 1.7.3 3.7 3.7l1.7 2.7c1 1.6 1.5 2.6 2.8 2.6 1.3 0 2-.9 2-1.6 0-.8-1.1-2.7-1.7-3.7-1-1.8-2.2-3.3-3.9-4.2zm-60.6-11.1h-4.4c-1.6 0-2.3 0-2.8.6-.6.6-.6 1-.6 2.8v13.4c0 1.5 0 2.1.4 2.6.6.8 1.4.8 3 .8h4.5c3.6 0 5.2-1 6.3-2 1.9-1.7 3-4.1 3-8 0-1.5-.2-4.6-1.8-6.8-2.3-3.3-5.5-3.4-7.6-3.4zm-.6 17h-3.1v-13.9h2.7c2.6 0 3.6.3 4.6 1.4.9 1 1.7 2.3 1.7 5.6 0 6.9-3.9 6.9-5.9 6.9zm27.4-13.7c-2.3-3.2-5.5-3.3-7.6-3.3h-4.4c-1.6 0-2.3 0-2.8.6-.6.6-.6 1-.6 2.8v13.4c0 1.5 0 2.1.4 2.6.6.8 1.4.8 3 .8h4.5c3.6 0 5.2-1 6.3-2 1.9-1.7 3-4.1 3-8 0-1.6-.2-4.6-1.8-6.9zm-8.3 13.7h-3.1v-13.9h2.7c2.6 0 3.6.3 4.6 1.4.9 1 1.7 2.3 1.7 5.6 0 6.9-3.8 6.9-5.9 6.9zm-40.6-17.3c1.1 0 2-.9 2-2s-.9-2-2-2-2 .9-2 2c0 1 .9 2 2 2zm6.1 0c1.1 0 2-.9 2-2s-.9-2-2-2-2 .9-2 2c-.1 1 .9 2 2 2zm-52.9 2c0-1.1-.9-2-2-2s-2 .9-2 2v15.4c0 1.4 0 2.3.5 2.8.4.4 1 .6 1.5.6.7 0 1.2-.3 1.5-.6.5-.6.5-1.3.5-2.8v-15.4zm152 15.7c-.5-.2-.9-.2-1.9-.2h-8.8v-5.8h8c.8 0 1.4-.6 1.4-1.4v-.4c0-.8-.6-1.4-1.4-1.4h-8v-4.9h8.5c1.1 0 1.7 0 2.1-.4.3-.3.5-.7.5-1.1 0-.6-.3-1-.5-1.2-.4-.4-1-.4-2.1-.4h-9.1c-1.7 0-2.2 0-2.8.6-.6.6-.6 1-.6 2.8v13.3c0 1.7 0 2.2.6 2.8.6.6 1 .6 2.8.6h9.4c1 0 1.6 0 2-.3.3-.3.6-.7.6-1.3.1-.6-.2-1.1-.7-1.3zm-116.3-29.5c-7 0-12.7-5.7-12.7-12.7 0-7 5.7-12.7 12.7-12.7s12.7 5.7 12.7 12.7c0 7-5.7 12.7-12.7 12.7zm0-18c-2.9 0-5.3 2.4-5.3 5.3s2.4 5.3 5.3 5.3 5.3-2.4 5.3-5.3-2.4-5.3-5.3-5.3z"/><path class="st0" d="M174 83.1V69c0-2.1-1.7-3.8-3.8-3.8-2.1 0-3.8 1.7-3.8 3.8v108.2H73.3V58.7c0-1.9.4-4.2.4-4.2l.1-.3c1.1-5.3 5.1-14.3 19.1-14.3h45c2.1 0 3.8-1.7 3.8-3.7 0-2.1-1.7-3.7-3.8-3.7h-45c-21.5 0-27.1 16.6-27.1 25.4v128.3c0 10.8 2.9 19.1 8.6 24.8H3.8c-2.1 0-3.8 1.7-3.8 3.7 0 2.1 1.7 3.7 3.8 3.7h89.3c2-.1 3.6-1.8 3.6-3.8-.1-2-1.7-3.6-3.8-3.6h-.7c-1.8-.1-7.5-.6-12.1-4.9-4.5-4.2-6.7-10.9-6.7-19.9v-1.5h93.1v1.5c0 9-2.3 15.7-6.7 19.9-4.5 4.3-10.3 4.8-12.1 4.9h-.8c-2.1 0-3.7 1.6-3.8 3.6-.1 2 1.5 3.7 3.6 3.8h87.5c2.1 0 3.8-1.7 3.8-3.7 0-2.1-1.7-3.7-3.8-3.7h-68.7c5.7-5.7 8.6-14 8.6-24.8V96.5l-.1-13.4z"/><path class="st0" d="M170.3 62.8h-.3c-2.1-.2-3.6-1.9-3.5-4 0-.1.4-7.2-4.6-13 0 0 0-.2-.1-.2-4.6-5.7-13.5-5.8-13.6-5.8h-.1c-2 0-3.7-1.5-3.7-3.6s1.6-3.7 3.7-3.8c.5 0 12.6-.1 19.6 8.5 7 8.2 6.3 17.9 6.3 18.4-.2 2-1.8 3.5-3.7 3.5z"/><path class="st0" d="M186.6 65.8h-.3c-2.1-.2-3.6-1.9-3.5-4 0-.1.8-14.4-9.1-26 0 0 0-.1-.1-.1-9.6-11.8-27.3-11.6-27.5-11.6-2.1.1-3.8-1.6-3.8-3.7s1.6-3.8 3.7-3.8c.9 0 21.5-.3 33.4 14.3 12 14 10.9 30.7 10.9 31.4-.1 2-1.7 3.5-3.7 3.5z"/><path class="st0" d="M202.7 68.9h-.2c-2.1-.1-3.6-1.9-3.5-4 0-.2 1.2-23.6-13.2-40.3 0 0 0-.1-.1-.1-13.9-17.1-41.2-17-41.5-17-2.1 0-3.8-1.6-3.8-3.7S142 0 144.1 0c1.3 0 31.3-.1 47.4 19.7 16.4 19.1 15.1 44.5 15 45.6-.2 2-1.8 3.6-3.8 3.6zm-83.1 84.2c-2.8 0-4.6-1.9-5.7-3.2l-.1-.2c-2-2-3.9-4-5.9-6-5.8-5.9-11.8-12-17.6-18.3-3.6-3.9-6.4-8.2-8.2-12.4-4.8-11.3-.9-24.1 9.2-30.6 4.1-2.6 8.6-4 13.2-4 5.6 0 10.9 3.1 15.3 6.9 4.4-3.8 9.7-6.9 15.3-6.9 4.5 0 9.1 1.4 13.2 4 10.1 6.5 14 19.4 9.2 30.6-1.8 4.2-4.7 8.5-8.2 12.4-5.8 6.3-11.8 12.4-17.6 18.4-2 2-3.9 4-5.9 6l-.1.1c-1.2 1.3-2.9 3.2-5.8 3.2h-.3z"/></svg>